<ttFont>
<head>
    <!-- Most of this table will be recalculated by the compiler -->
    <tableVersion value="1.0"/>
    <fontRevision value="3.206"/>
    <checkSumAdjustment value="0xde139fe2"/>
    <magicNumber value="0x5f0f3cf5"/>
    <flags value="00000000 00000011"/>
    <unitsPerEm value="1000"/>
    <created value="Tue Sep  8 09:59:06 2015"/>
    <modified value="Wed Sep  9 19:53:23 2015"/>
    <xMin value="-634"/>
    <yMin value="-500"/>
    <xMax value="1192"/>
    <yMax value="1050"/>
    <macStyle value="00000000 00000001"/>
    <lowestRecPPEM value="7"/>
    <fontDirectionHint value="2"/>
    <indexToLocFormat value="0"/>
    <glyphDataFormat value="0"/>
  </head>
    <TTGlyph name="A" xMin="-11" yMin="0" xMax="612" yMax="693">
      <contour>
        <pt x="197" y="150" on="1"/>
        <pt x="161" y="0" on="1"/>
        <pt x="-11" y="0" on="1"/>
        <pt x="201" y="693" on="1"/>
        <pt x="400" y="693" on="1"/>
        <pt x="612" y="0" on="1"/>
        <pt x="436" y="0" on="1"/>
        <pt x="400" y="150" on="1"/>
      </contour>
      <contour>
        <pt x="373" y="268" on="1"/>
        <pt x="298" y="575" on="1"/>
        <pt x="223" y="268" on="1"/>
      </contour>
    </TTGlyph>
    <TTGlyph name="B" xMin="56" yMin="0" xMax="571" yMax="693">
      <contour>
        <pt x="571" y="92" on="0"/>
        <pt x="414" y="0" on="0"/>
        <pt x="286" y="0" on="1"/>
        <pt x="56" y="0" on="1"/>
        <pt x="56" y="693" on="1"/>
        <pt x="276" y="693" on="1"/>
        <pt x="395" y="693" on="0"/>
        <pt x="541" y="610" on="0"/>
        <pt x="541" y="516" on="1"/>
        <pt x="541" y="457" on="0"/>
        <pt x="469" y="381" on="0"/>
        <pt x="414" y="367" on="1"/>
        <pt x="480" y="356" on="0"/>
        <pt x="571" y="279" on="0"/>
        <pt x="571" y="203" on="1"/>
      </contour>
      <contour>
        <pt x="376" y="540" on="0"/>
        <pt x="325" y="577" on="0"/>
        <pt x="270" y="577" on="1"/>
        <pt x="220" y="577" on="1"/>
        <pt x="220" y="416" on="1"/>
        <pt x="276" y="416" on="1"/>
        <pt x="328" y="416" on="0"/>
        <pt x="376" y="455" on="0"/>
        <pt x="376" y="499" on="1"/>
      </contour>
      <contour>
        <pt x="402" y="262" on="0"/>
        <pt x="343" y="306" on="0"/>
        <pt x="287" y="306" on="1"/>
        <pt x="220" y="306" on="1"/>
        <pt x="220" y="120" on="1"/>
        <pt x="280" y="120" on="1"/>
        <pt x="337" y="120" on="0"/>
        <pt x="402" y="158" on="0"/>
        <pt x="402" y="210" on="1"/>
      </contour>
    </TTGlyph>
    <TTGlyph name="C" xMin="34" yMin="-17" xMax="589" yMax="711">
      <contour>
        <pt x="430" y="711" on="0"/>
        <pt x="534" y="673" on="0"/>
        <pt x="580" y="635" on="1"/>
        <pt x="500" y="538" on="1"/>
        <pt x="437" y="589" on="0"/>
        <pt x="362" y="589" on="1"/>
        <pt x="291" y="589" on="0"/>
        <pt x="204" y="469" on="0"/>
        <pt x="204" y="348" on="1"/>
        <pt x="204" y="227" on="0"/>
        <pt x="290" y="110" on="0"/>
        <pt x="365" y="110" on="1"/>
        <pt x="411" y="110" on="0"/>
        <pt x="477" y="142" on="0"/>
        <pt x="515" y="172" on="1"/>
        <pt x="589" y="77" on="1"/>
        <pt x="497" y="-17" on="0"/>
        <pt x="356" y="-17" on="1"/>
        <pt x="261" y="-17" on="0"/>
        <pt x="116" y="67" on="0"/>
        <pt x="34" y="232" on="0"/>
        <pt x="34" y="348" on="1"/>
        <pt x="34" y="461" on="0"/>
        <pt x="118" y="625" on="0"/>
        <pt x="266" y="711" on="0"/>
        <pt x="358" y="711" on="1"/>
      </contour>
    </TTGlyph>
    <TTGlyph name="D" xMin="52" yMin="0" xMax="574" yMax="693">
      <contour>
        <pt x="574" y="0" on="0"/>
        <pt x="239" y="0" on="1"/>
        <pt x="52" y="0" on="1"/>
        <pt x="52" y="693" on="1"/>
        <pt x="227" y="693" on="1"/>
        <pt x="384" y="693" on="0"/>
        <pt x="574" y="546" on="0"/>
        <pt x="574" y="350" on="1"/>
      </contour>
      <contour>
        <pt x="405" y="479" on="0"/>
        <pt x="325" y="574" on="0"/>
        <pt x="251" y="574" on="1"/>
        <pt x="216" y="574" on="1"/>
        <pt x="216" y="119" on="1"/>
        <pt x="251" y="119" on="1"/>
        <pt x="326" y="119" on="0"/>
        <pt x="405" y="222" on="0"/>
        <pt x="405" y="350" on="1"/>
      </contour>
    </TTGlyph>
    <TTGlyph name="E" xMin="93" yMin="0" xMax="546" yMax="693">
      <contour>
        <pt x="257" y="409" on="1"/>
        <pt x="497" y="409" on="1"/>
        <pt x="497" y="295" on="1"/>
        <pt x="257" y="295" on="1"/>
        <pt x="257" y="118" on="1"/>
        <pt x="546" y="118" on="1"/>
        <pt x="546" y="0" on="1"/>
        <pt x="93" y="0" on="1"/>
        <pt x="93" y="693" on="1"/>
        <pt x="546" y="693" on="1"/>
        <pt x="529" y="576" on="1"/>
        <pt x="257" y="576" on="1"/>
      </contour>
    </TTGlyph>
    <TTGlyph name="F" xMin="108" yMin="0" xMax="563" yMax="693">
      <contour>
        <pt x="273" y="393" on="1"/>
        <pt x="515" y="393" on="1"/>
        <pt x="515" y="275" on="1"/>
        <pt x="273" y="275" on="1"/>
        <pt x="273" y="0" on="1"/>
        <pt x="108" y="0" on="1"/>
        <pt x="108" y="693" on="1"/>
        <pt x="563" y="693" on="1"/>
        <pt x="547" y="576" on="1"/>
        <pt x="273" y="576" on="1"/>
      </contour>
    </TTGlyph>
    <TTGlyph name="G" xMin="23" yMin="-17" xMax="568" yMax="711">
      <contour>
        <pt x="178" y="-17" on="0"/>
        <pt x="23" y="170" on="0"/>
        <pt x="23" y="348" on="1"/>
        <pt x="23" y="463" on="0"/>
        <pt x="107" y="627" on="0"/>
        <pt x="254" y="711" on="0"/>
        <pt x="345" y="711" on="1"/>
        <pt x="416" y="711" on="0"/>
        <pt x="521" y="666" on="0"/>
        <pt x="565" y="625" on="1"/>
        <pt x="479" y="536" on="1"/>
        <pt x="446" y="565" on="0"/>
        <pt x="389" y="591" on="0"/>
        <pt x="353" y="591" on="1"/>
        <pt x="278" y="591" on="0"/>
        <pt x="192" y="472" on="0"/>
        <pt x="192" y="347" on="1"/>
        <pt x="192" y="213" on="0"/>
        <pt x="256" y="103" on="0"/>
        <pt x="327" y="103" on="1"/>
        <pt x="374" y="103" on="0"/>
        <pt x="413" y="124" on="1"/>
        <pt x="413" y="283" on="1"/>
        <pt x="326" y="283" on="1"/>
        <pt x="310" y="397" on="1"/>
        <pt x="568" y="397" on="1"/>
        <pt x="568" y="53" on="1"/>
        <pt x="454" y="-17" on="0"/>
        <pt x="326" y="-17" on="1"/>
      </contour>
    </TTGlyph>
    <TTGlyph name="H" xMin="52" yMin="0" xMax="548" yMax="693">
      <contour>
        <pt x="384" y="292" on="1"/>
        <pt x="216" y="292" on="1"/>
        <pt x="216" y="0" on="1"/>
        <pt x="52" y="0" on="1"/>
        <pt x="52" y="693" on="1"/>
        <pt x="216" y="693" on="1"/>
        <pt x="216" y="427" on="1"/>
        <pt x="384" y="427" on="1"/>
        <pt x="384" y="693" on="1"/>
        <pt x="548" y="693" on="1"/>
        <pt x="548" y="0" on="1"/>
        <pt x="384" y="0" on="1"/>
      </contour>
    </TTGlyph>
    <TTGlyph name="I" xMin="75" yMin="0" xMax="525" yMax="693">
      <contour>
        <pt x="525" y="573" on="1"/>
        <pt x="382" y="573" on="1"/>
        <pt x="382" y="121" on="1"/>
        <pt x="525" y="121" on="1"/>
        <pt x="525" y="0" on="1"/>
        <pt x="75" y="0" on="1"/>
        <pt x="75" y="121" on="1"/>
        <pt x="218" y="121" on="1"/>
        <pt x="218" y="573" on="1"/>
        <pt x="75" y="573" on="1"/>
        <pt x="75" y="693" on="1"/>
        <pt x="525" y="693" on="1"/>
      </contour>
    </TTGlyph>
    <TTGlyph name="J" xMin="39" yMin="-15" xMax="527" yMax="693">
      <contour>
        <pt x="527" y="249" on="1"/>
        <pt x="527" y="127" on="0"/>
        <pt x="380" y="-15" on="0"/>
        <pt x="248" y="-15" on="1"/>
        <pt x="184" y="-15" on="0"/>
        <pt x="87" y="17" on="0"/>
        <pt x="39" y="50" on="1"/>
        <pt x="101" y="151" on="1"/>
        <pt x="137" y="127" on="0"/>
        <pt x="199" y="107" on="0"/>
        <pt x="239" y="107" on="1"/>
        <pt x="294" y="107" on="0"/>
        <pt x="363" y="178" on="0"/>
        <pt x="363" y="248" on="1"/>
        <pt x="363" y="573" on="1"/>
        <pt x="151" y="573" on="1"/>
        <pt x="151" y="693" on="1"/>
        <pt x="527" y="693" on="1"/>
      </contour>
    </TTGlyph>
    <TTGlyph name="K" xMin="59" yMin="0" xMax="608" yMax="693">
      <contour>
        <pt x="59" y="0" on="1"/>
        <pt x="59" y="693" on="1"/>
        <pt x="223" y="693" on="1"/>
        <pt x="223" y="0" on="1"/>
      </contour>
      <contour>
        <pt x="417" y="693" on="1"/>
        <pt x="589" y="693" on="1"/>
        <pt x="393" y="382" on="1"/>
        <pt x="608" y="0" on="1"/>
        <pt x="419" y="0" on="1"/>
        <pt x="228" y="370" on="1"/>
      </contour>
    </TTGlyph>
    <TTGlyph name="L" xMin="93" yMin="0" xMax="557" yMax="693">
      <contour>
        <pt x="93" y="693" on="1"/>
        <pt x="257" y="693" on="1"/>
        <pt x="257" y="130" on="1"/>
        <pt x="557" y="130" on="1"/>
        <pt x="541" y="0" on="1"/>
        <pt x="93" y="0" on="1"/>
      </contour>
    </TTGlyph>
    <TTGlyph name="M" xMin="17" yMin="0" xMax="583" yMax="693">
      <contour>
        <pt x="583" y="0" on="1"/>
        <pt x="439" y="0" on="1"/>
        <pt x="431" y="297" on="1"/>
        <pt x="430" y="319" on="0"/>
        <pt x="430" y="357" on="1"/>
        <pt x="430" y="407" on="0"/>
        <pt x="436" y="502" on="0"/>
        <pt x="440" y="554" on="1"/>
        <pt x="362" y="118" on="1"/>
        <pt x="238" y="118" on="1"/>
        <pt x="153" y="554" on="1"/>
        <pt x="164" y="439" on="0"/>
        <pt x="164" y="347" on="1"/>
        <pt x="163" y="294" on="1"/>
        <pt x="158" y="0" on="1"/>
        <pt x="17" y="0" on="1"/>
        <pt x="56" y="693" on="1"/>
        <pt x="225" y="693" on="1"/>
        <pt x="302" y="245" on="1"/>
        <pt x="375" y="693" on="1"/>
        <pt x="544" y="693" on="1"/>
      </contour>
    </TTGlyph>
    <TTGlyph name="N" xMin="52" yMin="0" xMax="548" yMax="693">
      <contour>
        <pt x="167" y="557" on="1"/>
        <pt x="177" y="481" on="0"/>
        <pt x="191" y="340" on="0"/>
        <pt x="191" y="261" on="1"/>
        <pt x="191" y="0" on="1"/>
        <pt x="52" y="0" on="1"/>
        <pt x="52" y="693" on="1"/>
        <pt x="257" y="693" on="1"/>
        <pt x="433" y="138" on="1"/>
        <pt x="409" y="292" on="0"/>
        <pt x="409" y="428" on="1"/>
        <pt x="409" y="693" on="1"/>
        <pt x="548" y="693" on="1"/>
        <pt x="548" y="0" on="1"/>
        <pt x="349" y="0" on="1"/>
      </contour>
    </TTGlyph>
    <TTGlyph name="O" xMin="23" yMin="-17" xMax="577" yMax="711">
      <contour>
        <pt x="577" y="178" on="0"/>
        <pt x="434" y="-17" on="0"/>
        <pt x="300" y="-17" on="1"/>
        <pt x="165" y="-17" on="0"/>
        <pt x="23" y="176" on="0"/>
        <pt x="23" y="347" on="1"/>
        <pt x="23" y="516" on="0"/>
        <pt x="166" y="711" on="0"/>
        <pt x="300" y="711" on="1"/>
        <pt x="435" y="711" on="0"/>
        <pt x="577" y="518" on="0"/>
        <pt x="577" y="347" on="1"/>
      </contour>
      <contour>
        <pt x="409" y="475" on="0"/>
        <pt x="358" y="591" on="0"/>
        <pt x="300" y="591" on="1"/>
        <pt x="242" y="591" on="0"/>
        <pt x="191" y="475" on="0"/>
        <pt x="191" y="347" on="1"/>
        <pt x="191" y="219" on="0"/>
        <pt x="242" y="103" on="0"/>
        <pt x="300" y="103" on="1"/>
        <pt x="359" y="103" on="0"/>
        <pt x="409" y="219" on="0"/>
        <pt x="409" y="347" on="1"/>
      </contour>
    </TTGlyph>
    <TTGlyph name="P" xMin="62" yMin="0" xMax="576" yMax="693">
      <contour>
        <pt x="576" y="350" on="0"/>
        <pt x="429" y="231" on="0"/>
        <pt x="302" y="231" on="1"/>
        <pt x="226" y="231" on="1"/>
        <pt x="226" y="0" on="1"/>
        <pt x="62" y="0" on="1"/>
        <pt x="62" y="693" on="1"/>
        <pt x="280" y="693" on="1"/>
        <pt x="424" y="693" on="0"/>
        <pt x="576" y="580" on="0"/>
        <pt x="576" y="467" on="1"/>
      </contour>
      <contour>
        <pt x="408" y="576" on="0"/>
        <pt x="283" y="576" on="1"/>
        <pt x="226" y="576" on="1"/>
        <pt x="226" y="349" on="1"/>
        <pt x="291" y="349" on="1"/>
        <pt x="347" y="349" on="0"/>
        <pt x="408" y="407" on="0"/>
        <pt x="408" y="467" on="1"/>
      </contour>
    </TTGlyph>
    <TTGlyph name="Q" xMin="32" yMin="-173" xMax="634" yMax="711">
      <contour>
        <pt x="574" y="114" on="0"/>
        <pt x="429" y="40" on="1"/>
        <pt x="513" y="26" on="0"/>
        <pt x="606" y="-46" on="0"/>
        <pt x="634" y="-127" on="1"/>
        <pt x="500" y="-173" on="1"/>
        <pt x="476" y="-116" on="0"/>
        <pt x="426" y="-49" on="0"/>
        <pt x="349" y="-14" on="0"/>
        <pt x="290" y="-14" on="1"/>
        <pt x="162" y="-14" on="0"/>
        <pt x="32" y="175" on="0"/>
        <pt x="32" y="347" on="1"/>
        <pt x="32" y="517" on="0"/>
        <pt x="170" y="711" on="0"/>
        <pt x="303" y="711" on="1"/>
        <pt x="437" y="711" on="0"/>
        <pt x="574" y="519" on="0"/>
        <pt x="574" y="347" on="1"/>
      </contour>
      <contour>
        <pt x="404" y="435" on="0"/>
        <pt x="386" y="540" on="0"/>
        <pt x="342" y="590" on="0"/>
        <pt x="303" y="590" on="1"/>
        <pt x="264" y="590" on="0"/>
        <pt x="220" y="539" on="0"/>
        <pt x="202" y="434" on="0"/>
        <pt x="202" y="347" on="1"/>
        <pt x="202" y="217" on="0"/>
        <pt x="247" y="103" on="0"/>
        <pt x="303" y="103" on="1"/>
        <pt x="343" y="103" on="0"/>
        <pt x="386" y="154" on="0"/>
        <pt x="404" y="259" on="0"/>
        <pt x="404" y="347" on="1"/>
      </contour>
    </TTGlyph>
    <TTGlyph name="R" xMin="58" yMin="0" xMax="604" yMax="693">
      <contour>
        <pt x="561" y="412" on="0"/>
        <pt x="486" y="317" on="0"/>
        <pt x="423" y="292" on="1"/>
        <pt x="604" y="0" on="1"/>
        <pt x="418" y="0" on="1"/>
        <pt x="268" y="265" on="1"/>
        <pt x="222" y="265" on="1"/>
        <pt x="222" y="0" on="1"/>
        <pt x="58" y="0" on="1"/>
        <pt x="58" y="693" on="1"/>
        <pt x="276" y="693" on="1"/>
        <pt x="419" y="693" on="0"/>
        <pt x="561" y="589" on="0"/>
        <pt x="561" y="482" on="1"/>
      </contour>
      <contour>
        <pt x="392" y="532" on="0"/>
        <pt x="335" y="578" on="0"/>
        <pt x="276" y="578" on="1"/>
        <pt x="222" y="578" on="1"/>
        <pt x="222" y="378" on="1"/>
        <pt x="283" y="378" on="1"/>
        <pt x="337" y="378" on="0"/>
        <pt x="392" y="428" on="0"/>
        <pt x="392" y="482" on="1"/>
      </contour>
    </TTGlyph>
    <TTGlyph name="S" xMin="12" yMin="-17" xMax="568" yMax="711">
      <contour>
        <pt x="568" y="138" on="0"/>
        <pt x="500" y="38" on="0"/>
        <pt x="373" y="-17" on="0"/>
        <pt x="286" y="-17" on="1"/>
        <pt x="114" y="-17" on="0"/>
        <pt x="12" y="83" on="1"/>
        <pt x="95" y="175" on="1"/>
        <pt x="174" y="105" on="0"/>
        <pt x="282" y="105" on="1"/>
        <pt x="334" y="105" on="0"/>
        <pt x="397" y="150" on="0"/>
        <pt x="397" y="190" on="1"/>
        <pt x="397" y="228" on="0"/>
        <pt x="344" y="271" on="0"/>
        <pt x="272" y="293" on="1"/>
        <pt x="150" y="330" on="0"/>
        <pt x="48" y="430" on="0"/>
        <pt x="48" y="509" on="1"/>
        <pt x="48" y="571" on="0"/>
        <pt x="117" y="663" on="0"/>
        <pt x="236" y="711" on="0"/>
        <pt x="309" y="711" on="1"/>
        <pt x="462" y="711" on="0"/>
        <pt x="557" y="621" on="1"/>
        <pt x="480" y="532" on="1"/>
        <pt x="445" y="561" on="0"/>
        <pt x="364" y="590" on="0"/>
        <pt x="321" y="590" on="1"/>
        <pt x="273" y="590" on="0"/>
        <pt x="218" y="555" on="0"/>
        <pt x="218" y="522" on="1"/>
        <pt x="218" y="500" on="0"/>
        <pt x="243" y="470" on="0"/>
        <pt x="301" y="444" on="0"/>
        <pt x="359" y="426" on="1"/>
        <pt x="465" y="394" on="0"/>
        <pt x="568" y="293" on="0"/>
        <pt x="568" y="203" on="1"/>
      </contour>
    </TTGlyph>
    <TTGlyph name="T" xMin="22" yMin="0" xMax="583" yMax="693">
      <contour>
        <pt x="381" y="0" on="1"/>
        <pt x="217" y="0" on="1"/>
        <pt x="217" y="567" on="1"/>
        <pt x="22" y="567" on="1"/>
        <pt x="22" y="693" on="1"/>
        <pt x="583" y="693" on="1"/>
        <pt x="567" y="567" on="1"/>
        <pt x="381" y="567" on="1"/>
      </contour>
    </TTGlyph>
    <TTGlyph name="U" xMin="42" yMin="-17" xMax="558" yMax="693">
      <contour>
        <pt x="558" y="232" on="1"/>
        <pt x="558" y="160" on="0"/>
        <pt x="500" y="47" on="0"/>
        <pt x="384" y="-17" on="0"/>
        <pt x="300" y="-17" on="1"/>
        <pt x="174" y="-17" on="0"/>
        <pt x="42" y="117" on="0"/>
        <pt x="42" y="232" on="1"/>
        <pt x="42" y="693" on="1"/>
        <pt x="207" y="693" on="1"/>
        <pt x="207" y="293" on="1"/>
        <pt x="207" y="226" on="0"/>
        <pt x="221" y="146" on="0"/>
        <pt x="262" y="105" on="0"/>
        <pt x="300" y="105" on="1"/>
        <pt x="338" y="105" on="0"/>
        <pt x="379" y="146" on="0"/>
        <pt x="393" y="226" on="0"/>
        <pt x="393" y="293" on="1"/>
        <pt x="393" y="693" on="1"/>
        <pt x="558" y="693" on="1"/>
      </contour>
    </TTGlyph>
    <TTGlyph name="V" xMin="0" yMin="0" xMax="601" yMax="693">
      <contour>
        <pt x="433" y="693" on="1"/>
        <pt x="601" y="693" on="1"/>
        <pt x="401" y="0" on="1"/>
        <pt x="199" y="0" on="1"/>
        <pt x="0" y="693" on="1"/>
        <pt x="174" y="693" on="1"/>
        <pt x="303" y="128" on="1"/>
      </contour>
    </TTGlyph>
    <TTGlyph name="W" xMin="-3" yMin="0" xMax="603" yMax="693">
      <contour>
        <pt x="522" y="0" on="1"/>
        <pt x="352" y="0" on="1"/>
        <pt x="301" y="496" on="1"/>
        <pt x="245" y="0" on="1"/>
        <pt x="72" y="0" on="1"/>
        <pt x="-3" y="693" on="1"/>
        <pt x="150" y="693" on="1"/>
        <pt x="174" y="140" on="1"/>
        <pt x="231" y="613" on="1"/>
        <pt x="373" y="613" on="1"/>
        <pt x="426" y="140" on="1"/>
        <pt x="460" y="693" on="1"/>
        <pt x="603" y="693" on="1"/>
      </contour>
    </TTGlyph>
    <TTGlyph name="X" xMin="4" yMin="0" xMax="597" yMax="693">
      <contour>
        <pt x="196" y="693" on="1"/>
        <pt x="300" y="471" on="1"/>
        <pt x="407" y="693" on="1"/>
        <pt x="580" y="693" on="1"/>
        <pt x="396" y="375" on="1"/>
        <pt x="597" y="0" on="1"/>
        <pt x="420" y="0" on="1"/>
        <pt x="298" y="264" on="1"/>
        <pt x="178" y="0" on="1"/>
        <pt x="4" y="0" on="1"/>
        <pt x="200" y="368" on="1"/>
        <pt x="19" y="693" on="1"/>
      </contour>
    </TTGlyph>
    <TTGlyph name="Y" xMin="-8" yMin="0" xMax="608" yMax="693">
      <contour>
        <pt x="382" y="0" on="1"/>
        <pt x="218" y="0" on="1"/>
        <pt x="218" y="259" on="1"/>
        <pt x="-8" y="693" on="1"/>
        <pt x="172" y="693" on="1"/>
        <pt x="303" y="395" on="1"/>
        <pt x="435" y="693" on="1"/>
        <pt x="608" y="693" on="1"/>
        <pt x="382" y="260" on="1"/>
      </contour>
    </TTGlyph>
    <TTGlyph name="Z" xMin="39" yMin="0" xMax="562" yMax="693">
      <contour>
        <pt x="562" y="131" on="1"/>
        <pt x="545" y="0" on="1"/>
        <pt x="39" y="0" on="1"/>
        <pt x="39" y="123" on="1"/>
        <pt x="368" y="566" on="1"/>
        <pt x="75" y="566" on="1"/>
        <pt x="75" y="693" on="1"/>
        <pt x="554" y="693" on="1"/>
        <pt x="554" y="569" on="1"/>
        <pt x="232" y="131" on="1"/>
      </contour>
    </TTGlyph>
    <TTGlyph name="a" xMin="35" yMin="-17" xMax="552" yMax="549">
      <contour>
        <pt x="517" y="124" on="0"/>
        <pt x="533" y="96" on="0"/>
        <pt x="552" y="89" on="1"/>
        <pt x="519" y="-15" on="1"/>
        <pt x="471" y="-10" on="0"/>
        <pt x="407" y="23" on="0"/>
        <pt x="389" y="55" on="1"/>
        <pt x="359" y="20" on="0"/>
        <pt x="267" y="-17" on="0"/>
        <pt x="215" y="-17" on="1"/>
        <pt x="133" y="-17" on="0"/>
        <pt x="35" y="76" on="0"/>
        <pt x="35" y="150" on="1"/>
        <pt x="35" y="236" on="0"/>
        <pt x="171" y="331" on="0"/>
        <pt x="294" y="331" on="1"/>
        <pt x="365" y="331" on="1"/>
        <pt x="365" y="350" on="1"/>
        <pt x="365" y="432" on="0"/>
        <pt x="260" y="432" on="1"/>
        <pt x="233" y="432" on="0"/>
        <pt x="152" y="417" on="0"/>
        <pt x="114" y="404" on="1"/>
        <pt x="78" y="509" on="1"/>
        <pt x="129" y="528" on="0"/>
        <pt x="240" y="549" on="0"/>
        <pt x="285" y="549" on="1"/>
        <pt x="517" y="549" on="0"/>
        <pt x="517" y="361" on="1"/>
        <pt x="517" y="153" on="1"/>
      </contour>
      <contour>
        <pt x="296" y="96" on="0"/>
        <pt x="351" y="127" on="0"/>
        <pt x="365" y="154" on="1"/>
        <pt x="365" y="241" on="1"/>
        <pt x="326" y="241" on="1"/>
        <pt x="198" y="241" on="0"/>
        <pt x="198" y="161" on="1"/>
        <pt x="198" y="130" on="0"/>
        <pt x="235" y="96" on="0"/>
        <pt x="269" y="96" on="1"/>
      </contour>
    </TTGlyph>
    <TTGlyph name="ampersand" xMin="37" yMin="-17" xMax="578" yMax="710">
      <contour>
        <pt x="341" y="710" on="0"/>
        <pt x="433" y="674" on="0"/>
        <pt x="473" y="631" on="1"/>
        <pt x="388" y="558" on="1"/>
        <pt x="365" y="582" on="0"/>
        <pt x="325" y="602" on="0"/>
        <pt x="297" y="602" on="1"/>
        <pt x="262" y="602" on="0"/>
        <pt x="224" y="560" on="0"/>
        <pt x="224" y="523" on="1"/>
        <pt x="224" y="484" on="0"/>
        <pt x="275" y="433" on="0"/>
        <pt x="316" y="433" on="1"/>
        <pt x="578" y="433" on="1"/>
        <pt x="578" y="332" on="1"/>
        <pt x="512" y="332" on="1"/>
        <pt x="512" y="70" on="1"/>
        <pt x="476" y="32" on="0"/>
        <pt x="363" y="-17" on="0"/>
        <pt x="281" y="-17" on="1"/>
        <pt x="204" y="-17" on="0"/>
        <pt x="94" y="38" on="0"/>
        <pt x="37" y="136" on="0"/>
        <pt x="37" y="198" on="1"/>
        <pt x="37" y="278" on="0"/>
        <pt x="116" y="371" on="0"/>
        <pt x="190" y="389" on="1"/>
        <pt x="190" y="393" on="1"/>
        <pt x="72" y="424" on="0"/>
        <pt x="72" y="543" on="1"/>
        <pt x="72" y="590" on="0"/>
        <pt x="125" y="666" on="0"/>
        <pt x="220" y="710" on="0"/>
        <pt x="279" y="710" on="1"/>
      </contour>
      <contour>
        <pt x="307" y="332" on="1"/>
        <pt x="251" y="332" on="0"/>
        <pt x="192" y="261" on="0"/>
        <pt x="192" y="210" on="1"/>
        <pt x="192" y="159" on="0"/>
        <pt x="243" y="98" on="0"/>
        <pt x="290" y="98" on="1"/>
        <pt x="314" y="98" on="0"/>
        <pt x="354" y="113" on="0"/>
        <pt x="366" y="126" on="1"/>
        <pt x="366" y="332" on="1"/>
      </contour>
    </TTGlyph>
    <TTGlyph name="circum" xMin="39" yMin="527" xMax="561" yMax="844">
      <contour>
        <pt x="561" y="527" on="1"/>
        <pt x="407" y="527" on="1"/>
        <pt x="299" y="726" on="1"/>
        <pt x="195" y="527" on="1"/>
        <pt x="39" y="527" on="1"/>
        <pt x="228" y="844" on="1"/>
        <pt x="372" y="844" on="1"/>
      </contour>
    </TTGlyph>
    <TTGlyph name="tilde" xMin="22" yMin="210" xMax="578" yMax="430">
      <contour>
        <pt x="240" y="430" on="0"/>
        <pt x="295" y="399" on="0"/>
        <pt x="327" y="371" on="1"/>
        <pt x="350" y="350" on="0"/>
        <pt x="383" y="330" on="0"/>
        <pt x="401" y="330" on="1"/>
        <pt x="428" y="330" on="0"/>
        <pt x="469" y="367" on="0"/>
        <pt x="490" y="408" on="1"/>
        <pt x="578" y="369" on="1"/>
        <pt x="543" y="292" on="0"/>
        <pt x="459" y="210" on="0"/>
        <pt x="397" y="210" on="1"/>
        <pt x="361" y="210" on="0"/>
        <pt x="308" y="240" on="0"/>
        <pt x="274" y="269" on="1"/>
        <pt x="249" y="290" on="0"/>
        <pt x="216" y="310" on="0"/>
        <pt x="199" y="310" on="1"/>
        <pt x="172" y="310" on="0"/>
        <pt x="131" y="272" on="0"/>
        <pt x="110" y="232" on="1"/>
        <pt x="22" y="272" on="1"/>
        <pt x="58" y="346" on="0"/>
        <pt x="141" y="430" on="0"/>
        <pt x="203" y="430" on="1"/>
      </contour>
    </TTGlyph>
    <TTGlyph name="asterisk" xMin="78" yMin="103" xMax="523" yMax="531">
      <contour>
        <pt x="346" y="380" on="1"/>
        <pt x="482" y="444" on="1"/>
        <pt x="523" y="320" on="1"/>
        <pt x="374" y="292" on="1"/>
        <pt x="480" y="183" on="1"/>
        <pt x="371" y="104" on="1"/>
        <pt x="299" y="238" on="1"/>
        <pt x="230" y="103" on="1"/>
        <pt x="121" y="182" on="1"/>
        <pt x="225" y="293" on="1"/>
        <pt x="78" y="320" on="1"/>
        <pt x="117" y="444" on="1"/>
        <pt x="254" y="381" on="1"/>
        <pt x="232" y="531" on="1"/>
        <pt x="367" y="531" on="1"/>
      </contour>
    </TTGlyph>
    <TTGlyph name="at" xMin="-2" yMin="-94" xMax="599" yMax="711">
      <contour>
        <pt x="456" y="711" on="0"/>
        <pt x="599" y="496" on="0"/>
        <pt x="599" y="296" on="1"/>
        <pt x="599" y="162" on="0"/>
        <pt x="572" y="-6" on="0"/>
        <pt x="503" y="-94" on="0"/>
        <pt x="441" y="-94" on="1"/>
        <pt x="387" y="-94" on="0"/>
        <pt x="328" y="-17" on="0"/>
        <pt x="321" y="44" on="1"/>
        <pt x="317" y="44" on="1"/>
        <pt x="299" y="3" on="0"/>
        <pt x="227" y="-49" on="0"/>
        <pt x="177" y="-49" on="1"/>
        <pt x="93" y="-49" on="0"/>
        <pt x="15" y="75" on="0"/>
        <pt x="15" y="179" on="1"/>
        <pt x="15" y="306" on="0"/>
        <pt x="122" y="448" on="0"/>
        <pt x="228" y="448" on="1"/>
        <pt x="269" y="448" on="0"/>
        <pt x="356" y="426" on="0"/>
        <pt x="396" y="404" on="1"/>
        <pt x="396" y="104" on="1"/>
        <pt x="396" y="50" on="0"/>
        <pt x="415" y="4" on="0"/>
        <pt x="436" y="4" on="1"/>
        <pt x="455" y="4" on="0"/>
        <pt x="473" y="58" on="0"/>
        <pt x="478" y="171" on="0"/>
        <pt x="478" y="287" on="1"/>
        <pt x="478" y="398" on="0"/>
        <pt x="444" y="539" on="0"/>
        <pt x="357" y="613" on="0"/>
        <pt x="279" y="613" on="1"/>
        <pt x="223" y="613" on="0"/>
        <pt x="117" y="570" on="0"/>
        <pt x="61" y="521" on="1"/>
        <pt x="-2" y="595" on="1"/>
        <pt x="66" y="655" on="0"/>
        <pt x="205" y="711" on="0"/>
        <pt x="287" y="711" on="1"/>
      </contour>
      <contour>
        <pt x="198" y="349" on="0"/>
        <pt x="169" y="317" on="0"/>
        <pt x="157" y="245" on="0"/>
        <pt x="157" y="179" on="1"/>
        <pt x="157" y="109" on="0"/>
        <pt x="178" y="50" on="0"/>
        <pt x="206" y="50" on="1"/>
        <pt x="235" y="50" on="0"/>
        <pt x="259" y="90" on="0"/>
        <pt x="263" y="121" on="1"/>
        <pt x="263" y="340" on="1"/>
        <pt x="245" y="349" on="0"/>
        <pt x="225" y="349" on="1"/>
      </contour>
    </TTGlyph>
    <TTGlyph name="b" xMin="70" yMin="-17" xMax="560" yMax="759">
      <contour>
        <pt x="253" y="511" on="0"/>
        <pt x="324" y="549" on="0"/>
        <pt x="364" y="549" on="1"/>
        <pt x="463" y="549" on="0"/>
        <pt x="560" y="401" on="0"/>
        <pt x="560" y="267" on="1"/>
        <pt x="560" y="184" on="0"/>
        <pt x="510" y="56" on="0"/>
        <pt x="414" y="-17" on="0"/>
        <pt x="347" y="-17" on="1"/>
        <pt x="307" y="-17" on="0"/>
        <pt x="239" y="17" on="0"/>
        <pt x="216" y="48" on="1"/>
        <pt x="210" y="0" on="1"/>
        <pt x="70" y="0" on="1"/>
        <pt x="70" y="742" on="1"/>
        <pt x="228" y="759" on="1"/>
        <pt x="228" y="477" on="1"/>
      </contour>
      <contour>
        <pt x="397" y="98" on="0"/>
        <pt x="397" y="265" on="1"/>
        <pt x="397" y="358" on="0"/>
        <pt x="355" y="432" on="0"/>
        <pt x="314" y="432" on="1"/>
        <pt x="265" y="432" on="0"/>
        <pt x="228" y="370" on="1"/>
        <pt x="228" y="146" on="1"/>
        <pt x="259" y="98" on="0"/>
        <pt x="306" y="98" on="1"/>
      </contour>
    </TTGlyph>
    <TTGlyph name="backslash" xMin="29" yMin="-112" xMax="571" yMax="817">
      <contour>
        <pt x="152" y="817" on="1"/>
        <pt x="571" y="-55" on="1"/>
        <pt x="448" y="-112" on="1"/>
        <pt x="29" y="760" on="1"/>
      </contour>
    </TTGlyph>
    <TTGlyph name="bar" xMin="226" yMin="-105" xMax="373" yMax="810">
      <contour>
        <pt x="373" y="-105" on="1"/>
        <pt x="226" y="-105" on="1"/>
        <pt x="226" y="810" on="1"/>
        <pt x="373" y="810" on="1"/>
      </contour>
    </TTGlyph>
    <TTGlyph name="braceleft" xMin="105" yMin="-140" xMax="467" yMax="840">
      <contour>
        <pt x="467" y="730" on="1"/>
        <pt x="417" y="730" on="0"/>
        <pt x="370" y="703" on="0"/>
        <pt x="374" y="667" on="1"/>
        <pt x="389" y="519" on="1"/>
        <pt x="390" y="510" on="0"/>
        <pt x="390" y="494" on="1"/>
        <pt x="390" y="428" on="0"/>
        <pt x="309" y="361" on="0"/>
        <pt x="234" y="350" on="1"/>
        <pt x="313" y="338" on="0"/>
        <pt x="391" y="274" on="0"/>
        <pt x="391" y="208" on="1"/>
        <pt x="391" y="201" on="0"/>
        <pt x="389" y="181" on="1"/>
        <pt x="374" y="33" on="1"/>
        <pt x="370" y="-2" on="0"/>
        <pt x="418" y="-30" on="0"/>
        <pt x="467" y="-30" on="1"/>
        <pt x="467" y="-140" on="1"/>
        <pt x="339" y="-140" on="0"/>
        <pt x="226" y="-70" on="0"/>
        <pt x="226" y="12" on="1"/>
        <pt x="226" y="22" on="0"/>
        <pt x="228" y="44" on="1"/>
        <pt x="243" y="188" on="1"/>
        <pt x="244" y="201" on="1"/>
        <pt x="244" y="247" on="0"/>
        <pt x="171" y="286" on="0"/>
        <pt x="105" y="286" on="1"/>
        <pt x="105" y="414" on="1"/>
        <pt x="244" y="414" on="0"/>
        <pt x="244" y="499" on="1"/>
        <pt x="243" y="512" on="1"/>
        <pt x="228" y="655" on="1"/>
        <pt x="226" y="679" on="0"/>
        <pt x="226" y="689" on="1"/>
        <pt x="226" y="771" on="0"/>
        <pt x="340" y="840" on="0"/>
        <pt x="467" y="840" on="1"/>
      </contour>
    </TTGlyph>
    <TTGlyph name="braceright" xMin="133" yMin="-140" xMax="495" yMax="840">
      <contour>
        <pt x="261" y="840" on="0"/>
        <pt x="374" y="770" on="0"/>
        <pt x="374" y="688" on="1"/>
        <pt x="374" y="678" on="0"/>
        <pt x="372" y="656" on="1"/>
        <pt x="357" y="512" on="1"/>
        <pt x="356" y="499" on="1"/>
        <pt x="356" y="414" on="0"/>
        <pt x="495" y="414" on="1"/>
        <pt x="495" y="286" on="1"/>
        <pt x="356" y="286" on="0"/>
        <pt x="356" y="201" on="1"/>
        <pt x="357" y="188" on="1"/>
        <pt x="372" y="45" on="1"/>
        <pt x="374" y="21" on="0"/>
        <pt x="374" y="11" on="1"/>
        <pt x="374" y="-71" on="0"/>
        <pt x="260" y="-140" on="0"/>
        <pt x="133" y="-140" on="1"/>
        <pt x="133" y="-30" on="1"/>
        <pt x="183" y="-30" on="0"/>
        <pt x="230" y="-3" on="0"/>
        <pt x="226" y="33" on="1"/>
        <pt x="211" y="181" on="1"/>
        <pt x="210" y="190" on="0"/>
        <pt x="210" y="206" on="1"/>
        <pt x="210" y="272" on="0"/>
        <pt x="291" y="339" on="0"/>
        <pt x="367" y="350" on="1"/>
        <pt x="288" y="362" on="0"/>
        <pt x="210" y="426" on="0"/>
        <pt x="210" y="492" on="1"/>
        <pt x="210" y="510" on="0"/>
        <pt x="211" y="519" on="1"/>
        <pt x="226" y="667" on="1"/>
        <pt x="230" y="702" on="0"/>
        <pt x="182" y="730" on="0"/>
        <pt x="133" y="730" on="1"/>
        <pt x="133" y="840" on="1"/>
      </contour>
    </TTGlyph>
    <TTGlyph name="bracketleft" xMin="156" yMin="-123" xMax="464" yMax="823">
      <contour>
        <pt x="156" y="823" on="1"/>
        <pt x="464" y="823" on="1"/>
        <pt x="464" y="705" on="1"/>
        <pt x="305" y="705" on="1"/>
        <pt x="305" y="-6" on="1"/>
        <pt x="464" y="-6" on="1"/>
        <pt x="464" y="-123" on="1"/>
        <pt x="156" y="-123" on="1"/>
      </contour>
    </TTGlyph>
    <TTGlyph name="bracketright" xMin="136" yMin="-123" xMax="444" yMax="823">
      <contour>
        <pt x="444" y="-123" on="1"/>
        <pt x="136" y="-123" on="1"/>
        <pt x="136" y="-5" on="1"/>
        <pt x="295" y="-5" on="1"/>
        <pt x="295" y="705" on="1"/>
        <pt x="136" y="705" on="1"/>
        <pt x="136" y="823" on="1"/>
        <pt x="444" y="823" on="1"/>
      </contour>
    </TTGlyph>
    <TTGlyph name="c" xMin="69" yMin="-17" xMax="540" yMax="549">
      <contour>
        <pt x="382" y="108" on="0"/>
        <pt x="438" y="131" on="0"/>
        <pt x="470" y="153" on="1"/>
        <pt x="540" y="53" on="1"/>
        <pt x="502" y="21" on="0"/>
        <pt x="402" y="-17" on="0"/>
        <pt x="343" y="-17" on="1"/>
        <pt x="258" y="-17" on="0"/>
        <pt x="135" y="53" on="0"/>
        <pt x="69" y="179" on="0"/>
        <pt x="69" y="262" on="1"/>
        <pt x="69" y="345" on="0"/>
        <pt x="137" y="475" on="0"/>
        <pt x="262" y="549" on="0"/>
        <pt x="346" y="549" on="1"/>
        <pt x="405" y="549" on="0"/>
        <pt x="499" y="516" on="0"/>
        <pt x="540" y="482" on="1"/>
        <pt x="472" y="387" on="1"/>
        <pt x="414" y="427" on="0"/>
        <pt x="353" y="427" on="1"/>
        <pt x="234" y="427" on="0"/>
        <pt x="234" y="262" on="1"/>
        <pt x="234" y="179" on="0"/>
        <pt x="296" y="108" on="0"/>
        <pt x="352" y="108" on="1"/>
      </contour>
    </TTGlyph>
    <TTGlyph name="colon" xMin="195" yMin="-17" xMax="404" yMax="539">
      <contour>
        <pt x="195" y="477" on="0"/>
        <pt x="256" y="539" on="0"/>
        <pt x="300" y="539" on="1"/>
        <pt x="344" y="539" on="0"/>
        <pt x="404" y="477" on="0"/>
        <pt x="404" y="434" on="1"/>
        <pt x="404" y="391" on="0"/>
        <pt x="344" y="330" on="0"/>
        <pt x="300" y="330" on="1"/>
        <pt x="256" y="330" on="0"/>
        <pt x="195" y="391" on="0"/>
        <pt x="195" y="434" on="1"/>
      </contour>
      <contour>
        <pt x="195" y="131" on="0"/>
        <pt x="256" y="192" on="0"/>
        <pt x="300" y="192" on="1"/>
        <pt x="344" y="192" on="0"/>
        <pt x="404" y="131" on="0"/>
        <pt x="404" y="89" on="1"/>
        <pt x="404" y="45" on="0"/>
        <pt x="344" y="-17" on="0"/>
        <pt x="300" y="-17" on="1"/>
        <pt x="256" y="-17" on="0"/>
        <pt x="195" y="45" on="0"/>
        <pt x="195" y="89" on="1"/>
      </contour>
    </TTGlyph>
    <TTGlyph name="comma" xMin="188" yMin="-203" xMax="409" yMax="206">
      <contour>
        <pt x="347" y="206" on="0"/>
        <pt x="409" y="144" on="0"/>
        <pt x="409" y="98" on="1"/>
        <pt x="409" y="70" on="0"/>
        <pt x="391" y="15" on="0"/>
        <pt x="366" y="-40" on="1"/>
        <pt x="294" y="-203" on="1"/>
        <pt x="188" y="-203" on="1"/>
        <pt x="239" y="9" on="1"/>
        <pt x="217" y="23" on="0"/>
        <pt x="192" y="70" on="0"/>
        <pt x="192" y="99" on="1"/>
        <pt x="192" y="144" on="0"/>
        <pt x="254" y="206" on="0"/>
        <pt x="300" y="206" on="1"/>
      </contour>
    </TTGlyph>
    <TTGlyph name="d" xMin="40" yMin="-17" xMax="530" yMax="759">
      <contour>
        <pt x="530" y="742" on="1"/>
        <pt x="530" y="0" on="1"/>
        <pt x="390" y="0" on="1"/>
        <pt x="382" y="58" on="1"/>
        <pt x="358" y="24" on="0"/>
        <pt x="284" y="-17" on="0"/>
        <pt x="235" y="-17" on="1"/>
        <pt x="139" y="-17" on="0"/>
        <pt x="40" y="135" on="0"/>
        <pt x="40" y="267" on="1"/>
        <pt x="40" y="349" on="0"/>
        <pt x="92" y="477" on="0"/>
        <pt x="188" y="549" on="0"/>
        <pt x="252" y="549" on="1"/>
        <pt x="324" y="549" on="0"/>
        <pt x="372" y="499" on="1"/>
        <pt x="372" y="759" on="1"/>
      </contour>
      <contour>
        <pt x="251" y="433" on="0"/>
        <pt x="203" y="352" on="0"/>
        <pt x="203" y="266" on="1"/>
        <pt x="203" y="174" on="0"/>
        <pt x="246" y="99" on="0"/>
        <pt x="285" y="99" on="1"/>
        <pt x="335" y="99" on="0"/>
        <pt x="372" y="160" on="1"/>
        <pt x="372" y="389" on="1"/>
        <pt x="355" y="411" on="0"/>
        <pt x="318" y="433" on="0"/>
        <pt x="294" y="433" on="1"/>
      </contour>
    </TTGlyph>
    <TTGlyph name="dollar" xMin="42" yMin="-162" xMax="558" yMax="856">
      <contour>
        <pt x="349" y="708" on="1"/>
        <pt x="463" y="698" on="0"/>
        <pt x="546" y="629" on="1"/>
        <pt x="469" y="548" on="1"/>
        <pt x="416" y="592" on="0"/>
        <pt x="349" y="597" on="1"/>
        <pt x="349" y="422" on="1"/>
        <pt x="457" y="387" on="0"/>
        <pt x="558" y="290" on="0"/>
        <pt x="558" y="204" on="1"/>
        <pt x="558" y="118" on="0"/>
        <pt x="448" y="-1" on="0"/>
        <pt x="349" y="-13" on="1"/>
        <pt x="349" y="-162" on="1"/>
        <pt x="268" y="-162" on="1"/>
        <pt x="268" y="-16" on="1"/>
        <pt x="198" y="-11" on="0"/>
        <pt x="82" y="41" on="0"/>
        <pt x="42" y="79" on="1"/>
        <pt x="118" y="167" on="1"/>
        <pt x="153" y="136" on="0"/>
        <pt x="225" y="103" on="0"/>
        <pt x="268" y="100" on="1"/>
        <pt x="268" y="308" on="1"/>
        <pt x="161" y="344" on="0"/>
        <pt x="67" y="440" on="0"/>
        <pt x="67" y="511" on="1"/>
        <pt x="67" y="593" on="0"/>
        <pt x="175" y="697" on="0"/>
        <pt x="268" y="707" on="1"/>
        <pt x="268" y="856" on="1"/>
        <pt x="349" y="856" on="1"/>
      </contour>
      <contour>
        <pt x="239" y="591" on="0"/>
        <pt x="208" y="555" on="0"/>
        <pt x="208" y="530" on="1"/>
        <pt x="208" y="503" on="0"/>
        <pt x="231" y="470" on="0"/>
        <pt x="268" y="453" on="1"/>
        <pt x="268" y="596" on="1"/>
      </contour>
      <contour>
        <pt x="349" y="103" on="1"/>
        <pt x="411" y="117" on="0"/>
        <pt x="411" y="185" on="1"/>
        <pt x="411" y="216" on="0"/>
        <pt x="385" y="258" on="0"/>
        <pt x="349" y="276" on="1"/>
      </contour>
    </TTGlyph>
    <TTGlyph name="e" xMin="46" yMin="-17" xMax="554" yMax="549">
      <contour>
        <pt x="222" y="98" on="0"/>
        <pt x="335" y="98" on="1"/>
        <pt x="403" y="98" on="0"/>
        <pt x="471" y="142" on="1"/>
        <pt x="534" y="56" on="1"/>
        <pt x="495" y="22" on="0"/>
        <pt x="387" y="-17" on="0"/>
        <pt x="322" y="-17" on="1"/>
        <pt x="233" y="-17" on="0"/>
        <pt x="109" y="54" on="0"/>
        <pt x="46" y="181" on="0"/>
        <pt x="46" y="265" on="1"/>
        <pt x="46" y="345" on="0"/>
        <pt x="107" y="474" on="0"/>
        <pt x="224" y="549" on="0"/>
        <pt x="305" y="549" on="1"/>
        <pt x="381" y="549" on="0"/>
        <pt x="493" y="484" on="0"/>
        <pt x="554" y="361" on="0"/>
        <pt x="554" y="276" on="1"/>
        <pt x="554" y="243" on="0"/>
        <pt x="551" y="219" on="1"/>
        <pt x="207" y="219" on="1"/>
      </contour>
      <contour>
        <pt x="262" y="443" on="0"/>
        <pt x="210" y="380" on="0"/>
        <pt x="205" y="315" on="1"/>
        <pt x="400" y="315" on="1"/>
        <pt x="398" y="443" on="0"/>
        <pt x="305" y="443" on="1"/>
      </contour>
    </TTGlyph>
    <TTGlyph name="eight" xMin="43" yMin="-17" xMax="557" yMax="711">
      <contour>
        <pt x="530" y="479" on="0"/>
        <pt x="479" y="409" on="0"/>
        <pt x="423" y="377" on="1"/>
        <pt x="557" y="309" on="0"/>
        <pt x="557" y="188" on="1"/>
        <pt x="557" y="133" on="0"/>
        <pt x="497" y="39" on="0"/>
        <pt x="380" y="-17" on="0"/>
        <pt x="297" y="-17" on="1"/>
        <pt x="216" y="-17" on="0"/>
        <pt x="101" y="38" on="0"/>
        <pt x="43" y="129" on="0"/>
        <pt x="43" y="184" on="1"/>
        <pt x="43" y="242" on="0"/>
        <pt x="110" y="331" on="0"/>
        <pt x="170" y="357" on="1"/>
        <pt x="115" y="392" on="0"/>
        <pt x="70" y="463" on="0"/>
        <pt x="70" y="519" on="1"/>
        <pt x="70" y="577" on="0"/>
        <pt x="130" y="664" on="0"/>
        <pt x="235" y="711" on="0"/>
        <pt x="301" y="711" on="1"/>
        <pt x="368" y="711" on="0"/>
        <pt x="472" y="666" on="0"/>
        <pt x="530" y="583" on="0"/>
        <pt x="530" y="527" on="1"/>
      </contour>
      <contour>
        <pt x="220" y="483" on="0"/>
        <pt x="268" y="435" on="0"/>
        <pt x="321" y="415" on="1"/>
        <pt x="354" y="439" on="0"/>
        <pt x="380" y="487" on="0"/>
        <pt x="380" y="518" on="1"/>
        <pt x="380" y="557" on="0"/>
        <pt x="340" y="603" on="0"/>
        <pt x="301" y="603" on="1"/>
        <pt x="262" y="603" on="0"/>
        <pt x="220" y="560" on="0"/>
        <pt x="220" y="519" on="1"/>
      </contour>
      <contour>
        <pt x="399" y="223" on="0"/>
        <pt x="372" y="266" on="0"/>
        <pt x="318" y="297" on="0"/>
        <pt x="267" y="315" on="1"/>
        <pt x="201" y="273" on="0"/>
        <pt x="201" y="194" on="1"/>
        <pt x="201" y="149" on="0"/>
        <pt x="252" y="96" on="0"/>
        <pt x="301" y="96" on="1"/>
        <pt x="350" y="96" on="0"/>
        <pt x="399" y="149" on="0"/>
        <pt x="399" y="189" on="1"/>
      </contour>
    </TTGlyph>
    <TTGlyph name="equal" xMin="73" yMin="145" xMax="527" yMax="478">
      <contour>
        <pt x="527" y="354" on="1"/>
        <pt x="73" y="354" on="1"/>
        <pt x="73" y="478" on="1"/>
        <pt x="527" y="478" on="1"/>
      </contour>
      <contour>
        <pt x="527" y="145" on="1"/>
        <pt x="73" y="145" on="1"/>
        <pt x="73" y="268" on="1"/>
        <pt x="527" y="268" on="1"/>
      </contour>
    </TTGlyph>
    <TTGlyph name="exclam" xMin="210" yMin="-17" xMax="390" yMax="693">
      <contour>
        <pt x="364" y="255" on="1"/>
        <pt x="237" y="255" on="1"/>
        <pt x="216" y="693" on="1"/>
        <pt x="384" y="693" on="1"/>
      </contour>
      <contour>
        <pt x="338" y="164" on="0"/>
        <pt x="390" y="111" on="0"/>
        <pt x="390" y="74" on="1"/>
        <pt x="390" y="36" on="0"/>
        <pt x="338" y="-17" on="0"/>
        <pt x="300" y="-17" on="1"/>
        <pt x="263" y="-17" on="0"/>
        <pt x="210" y="36" on="0"/>
        <pt x="210" y="74" on="1"/>
        <pt x="210" y="111" on="0"/>
        <pt x="263" y="164" on="0"/>
        <pt x="300" y="164" on="1"/>
      </contour>
    </TTGlyph>
    <TTGlyph name="f" xMin="76" yMin="0" xMax="590" yMax="759">
      <contour>
        <pt x="510" y="759" on="0"/>
        <pt x="590" y="725" on="1"/>
        <pt x="546" y="622" on="1"/>
        <pt x="495" y="642" on="0"/>
        <pt x="433" y="642" on="1"/>
        <pt x="386" y="642" on="0"/>
        <pt x="345" y="608" on="0"/>
        <pt x="345" y="569" on="1"/>
        <pt x="345" y="498" on="1"/>
        <pt x="518" y="498" on="1"/>
        <pt x="500" y="388" on="1"/>
        <pt x="345" y="388" on="1"/>
        <pt x="345" y="0" on="1"/>
        <pt x="188" y="0" on="1"/>
        <pt x="188" y="388" on="1"/>
        <pt x="76" y="388" on="1"/>
        <pt x="76" y="498" on="1"/>
        <pt x="188" y="498" on="1"/>
        <pt x="188" y="574" on="1"/>
        <pt x="188" y="656" on="0"/>
        <pt x="303" y="759" on="0"/>
        <pt x="408" y="759" on="1"/>
      </contour>
    </TTGlyph>
    <TTGlyph name="five" xMin="39" yMin="-17" xMax="541" yMax="693">
      <contour>
        <pt x="497" y="580" on="1"/>
        <pt x="244" y="580" on="1"/>
        <pt x="244" y="430" on="1"/>
        <pt x="293" y="453" on="0"/>
        <pt x="346" y="453" on="1"/>
        <pt x="400" y="453" on="0"/>
        <pt x="489" y="398" on="0"/>
        <pt x="541" y="296" on="0"/>
        <pt x="541" y="228" on="1"/>
        <pt x="541" y="158" on="0"/>
        <pt x="473" y="46" on="0"/>
        <pt x="349" y="-17" on="0"/>
        <pt x="269" y="-17" on="1"/>
        <pt x="196" y="-17" on="0"/>
        <pt x="79" y="38" on="0"/>
        <pt x="39" y="87" on="1"/>
        <pt x="130" y="170" on="1"/>
        <pt x="155" y="138" on="0"/>
        <pt x="220" y="104" on="0"/>
        <pt x="257" y="104" on="1"/>
        <pt x="312" y="104" on="0"/>
        <pt x="378" y="171" on="0"/>
        <pt x="378" y="225" on="1"/>
        <pt x="378" y="344" on="0"/>
        <pt x="284" y="344" on="1"/>
        <pt x="241" y="344" on="0"/>
        <pt x="200" y="321" on="1"/>
        <pt x="93" y="321" on="1"/>
        <pt x="93" y="693" on="1"/>
        <pt x="515" y="693" on="1"/>
      </contour>
    </TTGlyph>
    <TTGlyph name="four" xMin="45" yMin="0" xMax="553" yMax="711">
      <contour>
        <pt x="553" y="146" on="1"/>
        <pt x="484" y="146" on="1"/>
        <pt x="484" y="0" on="1"/>
        <pt x="333" y="0" on="1"/>
        <pt x="332" y="146" on="1"/>
        <pt x="45" y="146" on="1"/>
        <pt x="45" y="250" on="1"/>
        <pt x="237" y="711" on="1"/>
        <pt x="371" y="661" on="1"/>
        <pt x="208" y="264" on="1"/>
        <pt x="332" y="264" on="1"/>
        <pt x="350" y="431" on="1"/>
        <pt x="484" y="431" on="1"/>
        <pt x="484" y="264" on="1"/>
        <pt x="553" y="264" on="1"/>
      </contour>
    </TTGlyph>
    <TTGlyph name="g" xMin="31" yMin="-222" xMax="578" yMax="616">
      <contour>
        <pt x="578" y="500" on="1"/>
        <pt x="526" y="479" on="0"/>
        <pt x="425" y="479" on="1"/>
        <pt x="477" y="456" on="0"/>
        <pt x="528" y="392" on="0"/>
        <pt x="528" y="342" on="1"/>
        <pt x="528" y="291" on="0"/>
        <pt x="472" y="210" on="0"/>
        <pt x="370" y="164" on="0"/>
        <pt x="303" y="164" on="1"/>
        <pt x="270" y="164" on="0"/>
        <pt x="241" y="170" on="1"/>
        <pt x="233" y="166" on="0"/>
        <pt x="224" y="149" on="0"/>
        <pt x="224" y="140" on="1"/>
        <pt x="224" y="125" on="0"/>
        <pt x="247" y="108" on="0"/>
        <pt x="282" y="108" on="1"/>
        <pt x="370" y="108" on="1"/>
        <pt x="430" y="108" on="0"/>
        <pt x="522" y="68" on="0"/>
        <pt x="572" y="-2" on="0"/>
        <pt x="572" y="-46" on="1"/>
        <pt x="572" y="-129" on="0"/>
        <pt x="427" y="-222" on="0"/>
        <pt x="288" y="-222" on="1"/>
        <pt x="189" y="-222" on="0"/>
        <pt x="76" y="-181" on="0"/>
        <pt x="31" y="-107" on="0"/>
        <pt x="31" y="-51" on="1"/>
        <pt x="171" y="-51" on="1"/>
        <pt x="171" y="-76" on="0"/>
        <pt x="190" y="-104" on="0"/>
        <pt x="242" y="-118" on="0"/>
        <pt x="292" y="-118" on="1"/>
        <pt x="362" y="-118" on="0"/>
        <pt x="415" y="-86" on="0"/>
        <pt x="415" y="-57" on="1"/>
        <pt x="415" y="-33" on="0"/>
        <pt x="376" y="-4" on="0"/>
        <pt x="338" y="-4" on="1"/>
        <pt x="254" y="-4" on="1"/>
        <pt x="172" y="-4" on="0"/>
        <pt x="90" y="55" on="0"/>
        <pt x="90" y="101" on="1"/>
        <pt x="90" y="131" on="0"/>
        <pt x="121" y="184" on="0"/>
        <pt x="149" y="202" on="1"/>
        <pt x="99" y="229" on="0"/>
        <pt x="55" y="302" on="0"/>
        <pt x="55" y="354" on="1"/>
        <pt x="55" y="413" on="0"/>
        <pt x="115" y="501" on="0"/>
        <pt x="223" y="548" on="0"/>
        <pt x="292" y="548" on="1"/>
        <pt x="372" y="546" on="0"/>
        <pt x="484" y="581" on="0"/>
        <pt x="542" y="616" on="1"/>
      </contour>
      <contour>
        <pt x="258" y="445" on="0"/>
        <pt x="215" y="397" on="0"/>
        <pt x="215" y="356" on="1"/>
        <pt x="215" y="313" on="0"/>
        <pt x="259" y="265" on="0"/>
        <pt x="296" y="265" on="1"/>
        <pt x="335" y="265" on="0"/>
        <pt x="377" y="312" on="0"/>
        <pt x="377" y="358" on="1"/>
        <pt x="377" y="445" on="0"/>
        <pt x="296" y="445" on="1"/>
      </contour>
    </TTGlyph>
    <TTGlyph name="grave" xMin="163" yMin="622" xMax="442" yMax="835">
      <contour>
        <pt x="163" y="716" on="1"/>
        <pt x="224" y="835" on="1"/>
        <pt x="442" y="702" on="1"/>
        <pt x="399" y="622" on="1"/>
      </contour>
    </TTGlyph>
    <TTGlyph name="greater" xMin="70" yMin="15" xMax="531" yMax="613">
      <contour>
        <pt x="531" y="371" on="1"/>
        <pt x="531" y="257" on="1"/>
        <pt x="141" y="15" on="1"/>
        <pt x="70" y="123" on="1"/>
        <pt x="394" y="314" on="1"/>
        <pt x="70" y="499" on="1"/>
        <pt x="140" y="613" on="1"/>
      </contour>
    </TTGlyph>
    <TTGlyph name="h" xMin="70" yMin="0" xMax="530" yMax="758">
      <contour>
        <pt x="228" y="478" on="1"/>
        <pt x="295" y="549" on="0"/>
        <pt x="384" y="549" on="1"/>
        <pt x="454" y="549" on="0"/>
        <pt x="530" y="466" on="0"/>
        <pt x="530" y="390" on="1"/>
        <pt x="530" y="0" on="1"/>
        <pt x="372" y="0" on="1"/>
        <pt x="372" y="346" on="1"/>
        <pt x="372" y="394" on="0"/>
        <pt x="350" y="432" on="0"/>
        <pt x="321" y="432" on="1"/>
        <pt x="297" y="432" on="0"/>
        <pt x="252" y="399" on="0"/>
        <pt x="228" y="367" on="1"/>
        <pt x="228" y="0" on="1"/>
        <pt x="70" y="0" on="1"/>
        <pt x="70" y="742" on="1"/>
        <pt x="228" y="758" on="1"/>
      </contour>
    </TTGlyph>
    <TTGlyph name="hyphen" xMin="108" yMin="252" xMax="492" yMax="374">
      <contour>
        <pt x="108" y="374" on="1"/>
        <pt x="492" y="374" on="1"/>
        <pt x="492" y="252" on="1"/>
        <pt x="108" y="252" on="1"/>
      </contour>
    </TTGlyph>
    <TTGlyph name="i" xMin="86" yMin="0" xMax="530" yMax="809">
      <contour>
        <pt x="340" y="809" on="0"/>
        <pt x="392" y="758" on="0"/>
        <pt x="392" y="720" on="1"/>
        <pt x="392" y="681" on="0"/>
        <pt x="340" y="631" on="0"/>
        <pt x="299" y="631" on="1"/>
        <pt x="258" y="631" on="0"/>
        <pt x="205" y="682" on="0"/>
        <pt x="205" y="720" on="1"/>
        <pt x="205" y="758" on="0"/>
        <pt x="258" y="809" on="0"/>
        <pt x="299" y="809" on="1"/>
      </contour>
      <contour>
        <pt x="394" y="108" on="1"/>
        <pt x="530" y="108" on="1"/>
        <pt x="530" y="0" on="1"/>
        <pt x="86" y="0" on="1"/>
        <pt x="86" y="108" on="1"/>
        <pt x="236" y="108" on="1"/>
        <pt x="236" y="423" on="1"/>
        <pt x="91" y="423" on="1"/>
        <pt x="91" y="531" on="1"/>
        <pt x="394" y="531" on="1"/>
      </contour>
    </TTGlyph>
    <TTGlyph name="j" xMin="70" yMin="-222" xMax="472" yMax="809">
      <contour>
        <pt x="410" y="809" on="0"/>
        <pt x="463" y="758" on="0"/>
        <pt x="463" y="720" on="1"/>
        <pt x="463" y="682" on="0"/>
        <pt x="410" y="631" on="0"/>
        <pt x="370" y="631" on="1"/>
        <pt x="328" y="631" on="0"/>
        <pt x="276" y="681" on="0"/>
        <pt x="276" y="720" on="1"/>
        <pt x="276" y="758" on="0"/>
        <pt x="329" y="809" on="0"/>
        <pt x="370" y="809" on="1"/>
      </contour>
      <contour>
        <pt x="472" y="154" on="1"/>
        <pt x="472" y="41" on="0"/>
        <pt x="388" y="-108" on="0"/>
        <pt x="223" y="-197" on="0"/>
        <pt x="94" y="-222" on="1"/>
        <pt x="70" y="-101" on="1"/>
        <pt x="155" y="-82" on="0"/>
        <pt x="260" y="-26" on="0"/>
        <pt x="314" y="69" on="0"/>
        <pt x="314" y="144" on="1"/>
        <pt x="314" y="423" on="1"/>
        <pt x="124" y="423" on="1"/>
        <pt x="124" y="531" on="1"/>
        <pt x="472" y="531" on="1"/>
      </contour>
    </TTGlyph>
    <TTGlyph name="k" xMin="70" yMin="0" xMax="588" yMax="759">
      <contour>
        <pt x="228" y="0" on="1"/>
        <pt x="70" y="0" on="1"/>
        <pt x="70" y="742" on="1"/>
        <pt x="228" y="759" on="1"/>
      </contour>
      <contour>
        <pt x="399" y="296" on="1"/>
        <pt x="588" y="0" on="1"/>
        <pt x="408" y="0" on="1"/>
        <pt x="234" y="291" on="1"/>
        <pt x="409" y="531" on="1"/>
        <pt x="574" y="531" on="1"/>
      </contour>
    </TTGlyph>
    <TTGlyph name="l" xMin="33" yMin="-17" xMax="528" yMax="742">
      <contour>
        <pt x="347" y="167" on="1"/>
        <pt x="347" y="108" on="0"/>
        <pt x="415" y="108" on="1"/>
        <pt x="452" y="108" on="0"/>
        <pt x="491" y="124" on="1"/>
        <pt x="528" y="18" on="1"/>
        <pt x="464" y="-17" on="0"/>
        <pt x="375" y="-17" on="1"/>
        <pt x="282" y="-17" on="0"/>
        <pt x="189" y="90" on="0"/>
        <pt x="189" y="187" on="1"/>
        <pt x="189" y="634" on="1"/>
        <pt x="33" y="634" on="1"/>
        <pt x="33" y="742" on="1"/>
        <pt x="347" y="742" on="1"/>
      </contour>
    </TTGlyph>
    <TTGlyph name="less" xMin="70" yMin="15" xMax="531" yMax="613">
      <contour>
        <pt x="531" y="504" on="1"/>
        <pt x="206" y="314" on="1"/>
        <pt x="531" y="128" on="1"/>
        <pt x="459" y="15" on="1"/>
        <pt x="70" y="257" on="1"/>
        <pt x="70" y="370" on="1"/>
        <pt x="461" y="613" on="1"/>
      </contour>
    </TTGlyph>
    <TTGlyph name="m" xMin="27" yMin="0" xMax="573" yMax="549">
      <contour>
        <pt x="520" y="549" on="0"/>
        <pt x="573" y="474" on="0"/>
        <pt x="573" y="393" on="1"/>
        <pt x="573" y="0" on="1"/>
        <pt x="438" y="0" on="1"/>
        <pt x="438" y="375" on="1"/>
        <pt x="438" y="404" on="0"/>
        <pt x="427" y="426" on="0"/>
        <pt x="412" y="426" on="1"/>
        <pt x="384" y="426" on="0"/>
        <pt x="357" y="391" on="1"/>
        <pt x="357" y="0" on="1"/>
        <pt x="245" y="0" on="1"/>
        <pt x="245" y="375" on="1"/>
        <pt x="245" y="404" on="0"/>
        <pt x="234" y="426" on="0"/>
        <pt x="219" y="426" on="1"/>
        <pt x="191" y="426" on="0"/>
        <pt x="164" y="391" on="1"/>
        <pt x="164" y="0" on="1"/>
        <pt x="27" y="0" on="1"/>
        <pt x="27" y="531" on="1"/>
        <pt x="142" y="531" on="1"/>
        <pt x="153" y="480" on="1"/>
        <pt x="179" y="516" on="0"/>
        <pt x="230" y="549" on="0"/>
        <pt x="264" y="549" on="1"/>
        <pt x="295" y="549" on="0"/>
        <pt x="337" y="518" on="0"/>
        <pt x="346" y="486" on="1"/>
        <pt x="400" y="549" on="0"/>
        <pt x="463" y="549" on="1"/>
      </contour>
    </TTGlyph>
    <TTGlyph name="n" xMin="70" yMin="0" xMax="530" yMax="549">
      <contour>
        <pt x="70" y="531" on="1"/>
        <pt x="208" y="531" on="1"/>
        <pt x="219" y="470" on="1"/>
        <pt x="255" y="510" on="0"/>
        <pt x="334" y="549" on="0"/>
        <pt x="384" y="549" on="1"/>
        <pt x="453" y="549" on="0"/>
        <pt x="530" y="465" on="0"/>
        <pt x="530" y="390" on="1"/>
        <pt x="530" y="0" on="1"/>
        <pt x="372" y="0" on="1"/>
        <pt x="372" y="344" on="1"/>
        <pt x="372" y="394" on="0"/>
        <pt x="350" y="432" on="0"/>
        <pt x="321" y="432" on="1"/>
        <pt x="297" y="432" on="0"/>
        <pt x="252" y="401" on="0"/>
        <pt x="228" y="371" on="1"/>
        <pt x="228" y="0" on="1"/>
        <pt x="70" y="0" on="1"/>
      </contour>
    </TTGlyph>
    <TTGlyph name="nine" xMin="44" yMin="-30" xMax="551" yMax="711">
      <contour>
        <pt x="420" y="711" on="0"/>
        <pt x="551" y="561" on="0"/>
        <pt x="551" y="434" on="1"/>
        <pt x="551" y="301" on="0"/>
        <pt x="461" y="117" on="0"/>
        <pt x="276" y="1" on="0"/>
        <pt x="129" y="-30" on="1"/>
        <pt x="96" y="81" on="1"/>
        <pt x="220" y="112" on="0"/>
        <pt x="358" y="215" on="0"/>
        <pt x="381" y="296" on="1"/>
        <pt x="349" y="268" on="0"/>
        <pt x="281" y="239" on="0"/>
        <pt x="240" y="239" on="1"/>
        <pt x="186" y="239" on="0"/>
        <pt x="96" y="295" on="0"/>
        <pt x="44" y="396" on="0"/>
        <pt x="44" y="461" on="1"/>
        <pt x="44" y="535" on="0"/>
        <pt x="110" y="648" on="0"/>
        <pt x="224" y="711" on="0"/>
        <pt x="296" y="711" on="1"/>
      </contour>
      <contour>
        <pt x="203" y="406" on="0"/>
        <pt x="250" y="350" on="0"/>
        <pt x="289" y="350" on="1"/>
        <pt x="340" y="350" on="0"/>
        <pt x="388" y="390" on="1"/>
        <pt x="389" y="465" on="0"/>
        <pt x="374" y="553" on="0"/>
        <pt x="334" y="598" on="0"/>
        <pt x="295" y="598" on="1"/>
        <pt x="251" y="598" on="0"/>
        <pt x="203" y="533" on="0"/>
        <pt x="203" y="466" on="1"/>
      </contour>
    </TTGlyph>
    <TTGlyph name="numbersign" xMin="35" yMin="0" xMax="566" yMax="693">
      <contour>
        <pt x="466" y="249" on="1"/>
        <pt x="529" y="249" on="1"/>
        <pt x="529" y="145" on="1"/>
        <pt x="452" y="145" on="1"/>
        <pt x="433" y="0" on="1"/>
        <pt x="303" y="0" on="1"/>
        <pt x="322" y="145" on="1"/>
        <pt x="226" y="145" on="1"/>
        <pt x="207" y="0" on="1"/>
        <pt x="77" y="0" on="1"/>
        <pt x="95" y="145" on="1"/>
        <pt x="35" y="145" on="1"/>
        <pt x="35" y="249" on="1"/>
        <pt x="109" y="249" on="1"/>
        <pt x="135" y="446" on="1"/>
        <pt x="72" y="446" on="1"/>
        <pt x="72" y="551" on="1"/>
        <pt x="149" y="551" on="1"/>
        <pt x="167" y="693" on="1"/>
        <pt x="298" y="693" on="1"/>
        <pt x="279" y="551" on="1"/>
        <pt x="375" y="551" on="1"/>
        <pt x="394" y="693" on="1"/>
        <pt x="524" y="693" on="1"/>
        <pt x="505" y="551" on="1"/>
        <pt x="566" y="551" on="1"/>
        <pt x="566" y="446" on="1"/>
        <pt x="491" y="446" on="1"/>
      </contour>
      <contour>
        <pt x="335" y="249" on="1"/>
        <pt x="361" y="446" on="1"/>
        <pt x="265" y="446" on="1"/>
        <pt x="239" y="249" on="1"/>
      </contour>
    </TTGlyph>
    <TTGlyph name="o" xMin="42" yMin="-17" xMax="558" yMax="549">
      <contour>
        <pt x="421" y="549" on="0"/>
        <pt x="558" y="396" on="0"/>
        <pt x="558" y="267" on="1"/>
        <pt x="558" y="133" on="0"/>
        <pt x="422" y="-17" on="0"/>
        <pt x="300" y="-17" on="1"/>
        <pt x="178" y="-17" on="0"/>
        <pt x="42" y="132" on="0"/>
        <pt x="42" y="266" on="1"/>
        <pt x="42" y="351" on="0"/>
        <pt x="103" y="478" on="0"/>
        <pt x="220" y="549" on="0"/>
        <pt x="300" y="549" on="1"/>
      </contour>
      <contour>
        <pt x="251" y="432" on="0"/>
        <pt x="205" y="353" on="0"/>
        <pt x="205" y="266" on="1"/>
        <pt x="205" y="178" on="0"/>
        <pt x="251" y="99" on="0"/>
        <pt x="300" y="99" on="1"/>
        <pt x="349" y="99" on="0"/>
        <pt x="395" y="179" on="0"/>
        <pt x="395" y="267" on="1"/>
        <pt x="395" y="353" on="0"/>
        <pt x="349" y="432" on="0"/>
        <pt x="300" y="432" on="1"/>
      </contour>
    </TTGlyph>
    <TTGlyph name="one" xMin="58" yMin="0" xMax="551" yMax="693">
      <contour>
        <pt x="551" y="120" on="1"/>
        <pt x="551" y="0" on="1"/>
        <pt x="101" y="0" on="1"/>
        <pt x="101" y="120" on="1"/>
        <pt x="268" y="120" on="1"/>
        <pt x="268" y="538" on="1"/>
        <pt x="125" y="448" on="1"/>
        <pt x="58" y="557" on="1"/>
        <pt x="282" y="693" on="1"/>
        <pt x="422" y="693" on="1"/>
        <pt x="422" y="120" on="1"/>
      </contour>
    </TTGlyph>
    <TTGlyph name="p" xMin="70" yMin="-222" xMax="558" yMax="549">
      <contour>
        <pt x="464" y="549" on="0"/>
        <pt x="558" y="402" on="0"/>
        <pt x="558" y="267" on="1"/>
        <pt x="558" y="185" on="0"/>
        <pt x="509" y="56" on="0"/>
        <pt x="417" y="-17" on="0"/>
        <pt x="354" y="-17" on="1"/>
        <pt x="277" y="-17" on="0"/>
        <pt x="228" y="38" on="1"/>
        <pt x="228" y="-205" on="1"/>
        <pt x="70" y="-222" on="1"/>
        <pt x="70" y="531" on="1"/>
        <pt x="210" y="531" on="1"/>
        <pt x="217" y="472" on="1"/>
        <pt x="248" y="511" on="0"/>
        <pt x="325" y="549" on="0"/>
        <pt x="364" y="549" on="1"/>
      </contour>
      <contour>
        <pt x="265" y="432" on="0"/>
        <pt x="228" y="370" on="1"/>
        <pt x="228" y="146" on="1"/>
        <pt x="245" y="122" on="0"/>
        <pt x="282" y="99" on="0"/>
        <pt x="306" y="99" on="1"/>
        <pt x="350" y="99" on="0"/>
        <pt x="395" y="178" on="0"/>
        <pt x="395" y="265" on="1"/>
        <pt x="395" y="359" on="0"/>
        <pt x="355" y="432" on="0"/>
        <pt x="315" y="432" on="1"/>
      </contour>
    </TTGlyph>
    <TTGlyph name="parenleft" xMin="101" yMin="-158" xMax="450" yMax="858">
      <contour>
        <pt x="261" y="266" on="0"/>
        <pt x="296" y="134" on="0"/>
        <pt x="377" y="5" on="0"/>
        <pt x="450" y="-75" on="1"/>
        <pt x="359" y="-158" on="1"/>
        <pt x="232" y="-49" on="0"/>
        <pt x="101" y="194" on="0"/>
        <pt x="101" y="350" on="1"/>
        <pt x="101" y="506" on="0"/>
        <pt x="232" y="749" on="0"/>
        <pt x="359" y="858" on="1"/>
        <pt x="450" y="775" on="1"/>
        <pt x="348" y="663" on="0"/>
        <pt x="261" y="472" on="0"/>
        <pt x="261" y="350" on="1"/>
      </contour>
    </TTGlyph>
    <TTGlyph name="parenright" xMin="150" yMin="-158" xMax="499" yMax="858">
      <contour>
        <pt x="339" y="472" on="0"/>
        <pt x="252" y="663" on="0"/>
        <pt x="150" y="775" on="1"/>
        <pt x="241" y="858" on="1"/>
        <pt x="368" y="749" on="0"/>
        <pt x="499" y="506" on="0"/>
        <pt x="499" y="350" on="1"/>
        <pt x="499" y="194" on="0"/>
        <pt x="368" y="-49" on="0"/>
        <pt x="241" y="-158" on="1"/>
        <pt x="150" y="-75" on="1"/>
        <pt x="223" y="5" on="0"/>
        <pt x="304" y="134" on="0"/>
        <pt x="339" y="266" on="0"/>
        <pt x="339" y="350" on="1"/>
      </contour>
    </TTGlyph>
    <TTGlyph name="percent" xMin="3" yMin="-29" xMax="596" yMax="716">
      <contour>
        <pt x="509" y="681" on="1"/>
        <pt x="168" y="-29" on="1"/>
        <pt x="85" y="6" on="1"/>
        <pt x="425" y="716" on="1"/>
      </contour>
      <contour>
        <pt x="213" y="711" on="0"/>
        <pt x="289" y="625" on="0"/>
        <pt x="289" y="554" on="1"/>
        <pt x="289" y="482" on="0"/>
        <pt x="213" y="397" on="0"/>
        <pt x="147" y="397" on="1"/>
        <pt x="79" y="397" on="0"/>
        <pt x="3" y="482" on="0"/>
        <pt x="3" y="554" on="1"/>
        <pt x="3" y="624" on="0"/>
        <pt x="80" y="711" on="0"/>
        <pt x="147" y="711" on="1"/>
      </contour>
      <contour>
        <pt x="123" y="633" on="0"/>
        <pt x="107" y="595" on="0"/>
        <pt x="107" y="554" on="1"/>
        <pt x="107" y="515" on="0"/>
        <pt x="124" y="475" on="0"/>
        <pt x="147" y="475" on="1"/>
        <pt x="170" y="475" on="0"/>
        <pt x="186" y="513" on="0"/>
        <pt x="186" y="554" on="1"/>
        <pt x="186" y="597" on="0"/>
        <pt x="170" y="633" on="0"/>
        <pt x="147" y="633" on="1"/>
      </contour>
      <contour>
        <pt x="520" y="307" on="0"/>
        <pt x="596" y="222" on="0"/>
        <pt x="596" y="150" on="1"/>
        <pt x="596" y="78" on="0"/>
        <pt x="520" y="-6" on="0"/>
        <pt x="454" y="-6" on="1"/>
        <pt x="386" y="-6" on="0"/>
        <pt x="310" y="78" on="0"/>
        <pt x="310" y="150" on="1"/>
        <pt x="310" y="220" on="0"/>
        <pt x="387" y="307" on="0"/>
        <pt x="454" y="307" on="1"/>
      </contour>
      <contour>
        <pt x="430" y="230" on="0"/>
        <pt x="414" y="191" on="0"/>
        <pt x="414" y="150" on="1"/>
        <pt x="414" y="112" on="0"/>
        <pt x="431" y="72" on="0"/>
        <pt x="454" y="72" on="1"/>
        <pt x="477" y="72" on="0"/>
        <pt x="493" y="110" on="0"/>
        <pt x="493" y="150" on="1"/>
        <pt x="493" y="193" on="0"/>
        <pt x="477" y="230" on="0"/>
        <pt x="454" y="230" on="1"/>
      </contour>
    </TTGlyph>
    <TTGlyph name="period" xMin="189" yMin="-17" xMax="411" yMax="206">
      <contour>
        <pt x="189" y="140" on="0"/>
        <pt x="254" y="206" on="0"/>
        <pt x="300" y="206" on="1"/>
        <pt x="346" y="206" on="0"/>
        <pt x="411" y="140" on="0"/>
        <pt x="411" y="95" on="1"/>
        <pt x="411" y="49" on="0"/>
        <pt x="346" y="-17" on="0"/>
        <pt x="300" y="-17" on="1"/>
        <pt x="254" y="-17" on="0"/>
        <pt x="189" y="49" on="0"/>
        <pt x="189" y="95" on="1"/>
      </contour>
    </TTGlyph>
    <TTGlyph name="plus" xMin="83" yMin="96" xMax="517" yMax="529">
      <contour>
        <pt x="365" y="373" on="1"/>
        <pt x="517" y="373" on="1"/>
        <pt x="517" y="252" on="1"/>
        <pt x="365" y="252" on="1"/>
        <pt x="365" y="96" on="1"/>
        <pt x="234" y="96" on="1"/>
        <pt x="234" y="252" on="1"/>
        <pt x="83" y="252" on="1"/>
        <pt x="83" y="373" on="1"/>
        <pt x="234" y="373" on="1"/>
        <pt x="234" y="529" on="1"/>
        <pt x="365" y="529" on="1"/>
      </contour>
    </TTGlyph>
    <TTGlyph name="q" xMin="42" yMin="-222" xMax="530" yMax="549">
      <contour>
        <pt x="294" y="549" on="0"/>
        <pt x="361" y="518" on="0"/>
        <pt x="385" y="488" on="1"/>
        <pt x="392" y="531" on="1"/>
        <pt x="530" y="531" on="1"/>
        <pt x="530" y="-222" on="1"/>
        <pt x="372" y="-205" on="1"/>
        <pt x="372" y="45" on="1"/>
        <pt x="320" y="-17" on="0"/>
        <pt x="236" y="-17" on="1"/>
        <pt x="137" y="-17" on="0"/>
        <pt x="42" y="133" on="0"/>
        <pt x="42" y="267" on="1"/>
        <pt x="42" y="349" on="0"/>
        <pt x="92" y="477" on="0"/>
        <pt x="188" y="549" on="0"/>
        <pt x="255" y="549" on="1"/>
      </contour>
      <contour>
        <pt x="251" y="433" on="0"/>
        <pt x="205" y="353" on="0"/>
        <pt x="205" y="266" on="1"/>
        <pt x="205" y="173" on="0"/>
        <pt x="246" y="100" on="0"/>
        <pt x="286" y="100" on="1"/>
        <pt x="337" y="100" on="0"/>
        <pt x="372" y="160" on="1"/>
        <pt x="372" y="389" on="1"/>
        <pt x="356" y="411" on="0"/>
        <pt x="319" y="433" on="0"/>
        <pt x="296" y="433" on="1"/>
      </contour>
    </TTGlyph>
    <TTGlyph name="question" xMin="56" yMin="-17" xMax="526" yMax="711">
      <contour>
        <pt x="369" y="711" on="0"/>
        <pt x="473" y="665" on="0"/>
        <pt x="526" y="589" on="0"/>
        <pt x="526" y="543" on="1"/>
        <pt x="526" y="502" on="0"/>
        <pt x="497" y="444" on="0"/>
        <pt x="455" y="407" on="0"/>
        <pt x="421" y="384" on="1"/>
        <pt x="380" y="357" on="0"/>
        <pt x="340" y="312" on="0"/>
        <pt x="340" y="276" on="1"/>
        <pt x="340" y="255" on="1"/>
        <pt x="196" y="255" on="1"/>
        <pt x="196" y="281" on="1"/>
        <pt x="196" y="328" on="0"/>
        <pt x="226" y="392" on="0"/>
        <pt x="268" y="431" on="0"/>
        <pt x="300" y="453" on="1"/>
        <pt x="332" y="475" on="0"/>
        <pt x="361" y="506" on="0"/>
        <pt x="361" y="529" on="1"/>
        <pt x="361" y="556" on="0"/>
        <pt x="317" y="586" on="0"/>
        <pt x="281" y="586" on="1"/>
        <pt x="247" y="586" on="0"/>
        <pt x="183" y="555" on="0"/>
        <pt x="156" y="525" on="1"/>
        <pt x="56" y="603" on="1"/>
        <pt x="148" y="711" on="0"/>
        <pt x="296" y="711" on="1"/>
      </contour>
      <contour>
        <pt x="307" y="164" on="0"/>
        <pt x="361" y="111" on="0"/>
        <pt x="361" y="74" on="1"/>
        <pt x="361" y="37" on="0"/>
        <pt x="308" y="-17" on="0"/>
        <pt x="270" y="-17" on="1"/>
        <pt x="233" y="-17" on="0"/>
        <pt x="180" y="36" on="0"/>
        <pt x="180" y="74" on="1"/>
        <pt x="180" y="111" on="0"/>
        <pt x="233" y="164" on="0"/>
        <pt x="270" y="164" on="1"/>
      </contour>
    </TTGlyph>
    <TTGlyph name="quotedbl" xMin="129" yMin="462" xMax="471" yMax="742">
      <contour>
        <pt x="129" y="742" on="1"/>
        <pt x="279" y="742" on="1"/>
        <pt x="260" y="462" on="1"/>
        <pt x="148" y="462" on="1"/>
      </contour>
      <contour>
        <pt x="320" y="742" on="1"/>
        <pt x="471" y="742" on="1"/>
        <pt x="452" y="462" on="1"/>
        <pt x="339" y="462" on="1"/>
      </contour>
    </TTGlyph>
    <TTGlyph name="quotesingle" xMin="225" yMin="462" xMax="374" yMax="742">
      <contour>
        <pt x="225" y="742" on="1"/>
        <pt x="374" y="742" on="1"/>
        <pt x="356" y="462" on="1"/>
        <pt x="244" y="462" on="1"/>
      </contour>
    </TTGlyph>
    <TTGlyph name="r" xMin="75" yMin="0" xMax="563" yMax="547">
      <contour>
        <pt x="523" y="547" on="0"/>
        <pt x="563" y="531" on="1"/>
        <pt x="534" y="309" on="1"/>
        <pt x="434" y="309" on="1"/>
        <pt x="434" y="407" on="1"/>
        <pt x="390" y="399" on="0"/>
        <pt x="322" y="319" on="0"/>
        <pt x="303" y="258" on="1"/>
        <pt x="303" y="106" on="1"/>
        <pt x="408" y="106" on="1"/>
        <pt x="408" y="0" on="1"/>
        <pt x="75" y="0" on="1"/>
        <pt x="75" y="106" on="1"/>
        <pt x="145" y="106" on="1"/>
        <pt x="145" y="426" on="1"/>
        <pt x="75" y="426" on="1"/>
        <pt x="75" y="531" on="1"/>
        <pt x="266" y="531" on="1"/>
        <pt x="294" y="412" on="1"/>
        <pt x="323" y="480" on="0"/>
        <pt x="411" y="547" on="0"/>
        <pt x="475" y="547" on="1"/>
      </contour>
    </TTGlyph>
    <TTGlyph name="s" xMin="48" yMin="-17" xMax="535" yMax="549">
      <contour>
        <pt x="324" y="96" on="0"/>
        <pt x="371" y="121" on="0"/>
        <pt x="371" y="146" on="1"/>
        <pt x="371" y="164" on="0"/>
        <pt x="352" y="186" on="0"/>
        <pt x="300" y="207" on="0"/>
        <pt x="245" y="222" on="1"/>
        <pt x="165" y="243" on="0"/>
        <pt x="81" y="318" on="0"/>
        <pt x="81" y="384" on="1"/>
        <pt x="81" y="457" on="0"/>
        <pt x="202" y="549" on="0"/>
        <pt x="311" y="549" on="1"/>
        <pt x="437" y="549" on="0"/>
        <pt x="526" y="484" on="1"/>
        <pt x="463" y="391" on="1"/>
        <pt x="390" y="436" on="0"/>
        <pt x="316" y="436" on="1"/>
        <pt x="277" y="436" on="0"/>
        <pt x="240" y="416" on="0"/>
        <pt x="240" y="395" on="1"/>
        <pt x="240" y="381" on="0"/>
        <pt x="259" y="362" on="0"/>
        <pt x="312" y="342" on="0"/>
        <pt x="365" y="327" on="1"/>
        <pt x="422" y="311" on="0"/>
        <pt x="495" y="273" on="0"/>
        <pt x="535" y="209" on="0"/>
        <pt x="535" y="159" on="1"/>
        <pt x="535" y="103" on="0"/>
        <pt x="467" y="23" on="0"/>
        <pt x="353" y="-17" on="0"/>
        <pt x="284" y="-17" on="1"/>
        <pt x="210" y="-17" on="0"/>
        <pt x="90" y="25" on="0"/>
        <pt x="48" y="63" on="1"/>
        <pt x="127" y="152" on="1"/>
        <pt x="199" y="96" on="0"/>
        <pt x="283" y="96" on="1"/>
      </contour>
    </TTGlyph>
    <TTGlyph name="semicolon" xMin="191" yMin="-198" xMax="404" yMax="539">
      <contour>
        <pt x="344" y="539" on="0"/>
        <pt x="404" y="477" on="0"/>
        <pt x="404" y="434" on="1"/>
        <pt x="404" y="391" on="0"/>
        <pt x="344" y="330" on="0"/>
        <pt x="300" y="330" on="1"/>
        <pt x="256" y="330" on="0"/>
        <pt x="195" y="391" on="0"/>
        <pt x="195" y="434" on="1"/>
        <pt x="195" y="477" on="0"/>
        <pt x="256" y="539" on="0"/>
        <pt x="300" y="539" on="1"/>
      </contour>
      <contour>
        <pt x="345" y="197" on="0"/>
        <pt x="404" y="137" on="0"/>
        <pt x="404" y="93" on="1"/>
        <pt x="404" y="67" on="0"/>
        <pt x="386" y="11" on="0"/>
        <pt x="363" y="-40" on="1"/>
        <pt x="294" y="-198" on="1"/>
        <pt x="191" y="-198" on="1"/>
        <pt x="240" y="7" on="1"/>
        <pt x="219" y="21" on="0"/>
        <pt x="195" y="67" on="0"/>
        <pt x="195" y="94" on="1"/>
        <pt x="195" y="138" on="0"/>
        <pt x="255" y="197" on="0"/>
        <pt x="300" y="197" on="1"/>
      </contour>
    </TTGlyph>
    <TTGlyph name="seven" xMin="68" yMin="-16" xMax="532" yMax="693">
      <contour>
        <pt x="114" y="31" on="1"/>
        <pt x="372" y="574" on="1"/>
        <pt x="68" y="574" on="1"/>
        <pt x="68" y="693" on="1"/>
        <pt x="532" y="693" on="1"/>
        <pt x="532" y="586" on="1"/>
        <pt x="264" y="-16" on="1"/>
      </contour>
    </TTGlyph>
    <TTGlyph name="six" xMin="50" yMin="-17" xMax="554" yMax="711">
      <contour>
        <pt x="415" y="465" on="0"/>
        <pt x="503" y="411" on="0"/>
        <pt x="554" y="306" on="0"/>
        <pt x="554" y="235" on="1"/>
        <pt x="554" y="165" on="0"/>
        <pt x="493" y="50" on="0"/>
        <pt x="382" y="-17" on="0"/>
        <pt x="308" y="-17" on="1"/>
        <pt x="178" y="-17" on="0"/>
        <pt x="50" y="168" on="0"/>
        <pt x="50" y="313" on="1"/>
        <pt x="50" y="430" on="0"/>
        <pt x="123" y="610" on="0"/>
        <pt x="259" y="711" on="0"/>
        <pt x="351" y="711" on="1"/>
        <pt x="436" y="711" on="0"/>
        <pt x="501" y="666" on="1"/>
        <pt x="441" y="570" on="1"/>
        <pt x="401" y="598" on="0"/>
        <pt x="353" y="598" on="1"/>
        <pt x="295" y="598" on="0"/>
        <pt x="220" y="495" on="0"/>
        <pt x="215" y="402" on="1"/>
        <pt x="245" y="433" on="0"/>
        <pt x="322" y="465" on="0"/>
        <pt x="360" y="465" on="1"/>
      </contour>
      <contour>
        <pt x="353" y="96" on="0"/>
        <pt x="396" y="168" on="0"/>
        <pt x="396" y="226" on="1"/>
        <pt x="396" y="295" on="0"/>
        <pt x="357" y="356" on="0"/>
        <pt x="319" y="356" on="1"/>
        <pt x="291" y="356" on="0"/>
        <pt x="237" y="328" on="0"/>
        <pt x="215" y="303" on="1"/>
        <pt x="216" y="196" on="0"/>
        <pt x="259" y="96" on="0"/>
        <pt x="310" y="96" on="1"/>
      </contour>
    </TTGlyph>
    <TTGlyph name="slash" xMin="29" yMin="-112" xMax="571" yMax="817">
      <contour>
        <pt x="29" y="-55" on="1"/>
        <pt x="449" y="817" on="1"/>
        <pt x="571" y="760" on="1"/>
        <pt x="152" y="-112" on="1"/>
      </contour>
    </TTGlyph>
    <TTGlyph name="t" xMin="58" yMin="-17" xMax="548" yMax="665">
      <contour>
        <pt x="473" y="-17" on="0"/>
        <pt x="374" y="-17" on="1"/>
        <pt x="272" y="-17" on="0"/>
        <pt x="169" y="87" on="0"/>
        <pt x="169" y="181" on="1"/>
        <pt x="169" y="422" on="1"/>
        <pt x="58" y="422" on="1"/>
        <pt x="58" y="531" on="1"/>
        <pt x="169" y="531" on="1"/>
        <pt x="169" y="646" on="1"/>
        <pt x="327" y="665" on="1"/>
        <pt x="327" y="531" on="1"/>
        <pt x="498" y="531" on="1"/>
        <pt x="482" y="422" on="1"/>
        <pt x="327" y="422" on="1"/>
        <pt x="327" y="181" on="1"/>
        <pt x="327" y="142" on="0"/>
        <pt x="363" y="108" on="0"/>
        <pt x="403" y="108" on="1"/>
        <pt x="453" y="108" on="0"/>
        <pt x="496" y="132" on="1"/>
        <pt x="548" y="31" on="1"/>
      </contour>
    </TTGlyph>
    <TTGlyph name="three" xMin="18" yMin="-17" xMax="530" yMax="711">
      <contour>
        <pt x="344" y="711" on="0"/>
        <pt x="451" y="663" on="0"/>
        <pt x="508" y="582" on="0"/>
        <pt x="508" y="533" on="1"/>
        <pt x="508" y="469" on="0"/>
        <pt x="433" y="387" on="0"/>
        <pt x="366" y="367" on="1"/>
        <pt x="530" y="345" on="0"/>
        <pt x="530" y="195" on="1"/>
        <pt x="530" y="136" on="0"/>
        <pt x="465" y="39" on="0"/>
        <pt x="343" y="-17" on="0"/>
        <pt x="262" y="-17" on="1"/>
        <pt x="186" y="-17" on="0"/>
        <pt x="62" y="37" on="0"/>
        <pt x="18" y="87" on="1"/>
        <pt x="107" y="170" on="1"/>
        <pt x="164" y="104" on="0"/>
        <pt x="251" y="104" on="1"/>
        <pt x="304" y="104" on="0"/>
        <pt x="368" y="158" on="0"/>
        <pt x="368" y="206" on="1"/>
        <pt x="368" y="310" on="0"/>
        <pt x="251" y="310" on="1"/>
        <pt x="188" y="310" on="1"/>
        <pt x="206" y="418" on="1"/>
        <pt x="250" y="418" on="1"/>
        <pt x="298" y="418" on="0"/>
        <pt x="355" y="465" on="0"/>
        <pt x="355" y="509" on="1"/>
        <pt x="355" y="548" on="0"/>
        <pt x="299" y="593" on="0"/>
        <pt x="254" y="593" on="1"/>
        <pt x="179" y="593" on="0"/>
        <pt x="116" y="533" on="1"/>
        <pt x="35" y="617" on="1"/>
        <pt x="132" y="711" on="0"/>
        <pt x="272" y="711" on="1"/>
      </contour>
    </TTGlyph>
    <TTGlyph name="two" xMin="40" yMin="0" xMax="531" yMax="711">
      <contour>
        <pt x="352" y="711" on="0"/>
        <pt x="460" y="657" on="0"/>
        <pt x="515" y="566" on="0"/>
        <pt x="515" y="512" on="1"/>
        <pt x="515" y="455" on="0"/>
        <pt x="463" y="349" on="0"/>
        <pt x="344" y="218" on="0"/>
        <pt x="235" y="121" on="1"/>
        <pt x="531" y="121" on="1"/>
        <pt x="514" y="0" on="1"/>
        <pt x="54" y="0" on="1"/>
        <pt x="54" y="112" on="1"/>
        <pt x="177" y="231" on="0"/>
        <pt x="299" y="364" on="0"/>
        <pt x="354" y="457" on="0"/>
        <pt x="354" y="498" on="1"/>
        <pt x="354" y="541" on="0"/>
        <pt x="306" y="589" on="0"/>
        <pt x="261" y="589" on="1"/>
        <pt x="222" y="589" on="0"/>
        <pt x="164" y="556" on="0"/>
        <pt x="136" y="519" on="1"/>
        <pt x="40" y="592" on="1"/>
        <pt x="81" y="649" on="0"/>
        <pt x="196" y="711" on="0"/>
        <pt x="276" y="711" on="1"/>
      </contour>
    </TTGlyph>
    <TTGlyph name="u" xMin="70" yMin="-17" xMax="530" yMax="531">
      <contour>
        <pt x="228" y="168" on="1"/>
        <pt x="228" y="131" on="0"/>
        <pt x="255" y="100" on="0"/>
        <pt x="282" y="100" on="1"/>
        <pt x="306" y="100" on="0"/>
        <pt x="356" y="131" on="0"/>
        <pt x="372" y="158" on="1"/>
        <pt x="372" y="531" on="1"/>
        <pt x="530" y="531" on="1"/>
        <pt x="530" y="0" on="1"/>
        <pt x="392" y="0" on="1"/>
        <pt x="385" y="62" on="1"/>
        <pt x="359" y="24" on="0"/>
        <pt x="271" y="-17" on="0"/>
        <pt x="222" y="-17" on="1"/>
        <pt x="147" y="-17" on="0"/>
        <pt x="70" y="70" on="0"/>
        <pt x="70" y="148" on="1"/>
        <pt x="70" y="531" on="1"/>
        <pt x="228" y="531" on="1"/>
      </contour>
    </TTGlyph>
    <TTGlyph name="underscore" xMin="50" yMin="-186" xMax="550" yMax="-62">
      <contour>
        <pt x="50" y="-62" on="1"/>
        <pt x="550" y="-62" on="1"/>
        <pt x="550" y="-186" on="1"/>
        <pt x="50" y="-186" on="1"/>
      </contour>
    </TTGlyph>
    <TTGlyph name="v" xMin="29" yMin="0" xMax="571" yMax="531">
      <contour>
        <pt x="394" y="0" on="1"/>
        <pt x="208" y="0" on="1"/>
        <pt x="29" y="531" on="1"/>
        <pt x="200" y="531" on="1"/>
        <pt x="303" y="121" on="1"/>
        <pt x="411" y="531" on="1"/>
        <pt x="571" y="531" on="1"/>
      </contour>
    </TTGlyph>
    <TTGlyph name="w" xMin="3" yMin="0" xMax="597" yMax="531">
      <contour>
        <pt x="347" y="0" on="1"/>
        <pt x="301" y="357" on="1"/>
        <pt x="253" y="0" on="1"/>
        <pt x="82" y="0" on="1"/>
        <pt x="3" y="531" on="1"/>
        <pt x="148" y="531" on="1"/>
        <pt x="183" y="99" on="1"/>
        <pt x="238" y="464" on="1"/>
        <pt x="372" y="464" on="1"/>
        <pt x="421" y="99" on="1"/>
        <pt x="457" y="531" on="1"/>
        <pt x="597" y="531" on="1"/>
        <pt x="521" y="0" on="1"/>
      </contour>
    </TTGlyph>
    <TTGlyph name="x" xMin="22" yMin="0" xMax="578" yMax="531">
      <contour>
        <pt x="22" y="0" on="1"/>
        <pt x="204" y="279" on="1"/>
        <pt x="39" y="531" on="1"/>
        <pt x="216" y="531" on="1"/>
        <pt x="301" y="361" on="1"/>
        <pt x="383" y="531" on="1"/>
        <pt x="551" y="531" on="1"/>
        <pt x="395" y="285" on="1"/>
        <pt x="578" y="0" on="1"/>
        <pt x="399" y="0" on="1"/>
        <pt x="294" y="199" on="1"/>
        <pt x="193" y="0" on="1"/>
      </contour>
    </TTGlyph>
    <TTGlyph name="y" xMin="28" yMin="-223" xMax="572" yMax="531">
      <contour>
        <pt x="395" y="0" on="1"/>
        <pt x="359" y="-107" on="0"/>
        <pt x="217" y="-216" on="0"/>
        <pt x="98" y="-223" on="1"/>
        <pt x="80" y="-111" on="1"/>
        <pt x="156" y="-101" on="0"/>
        <pt x="229" y="-53" on="0"/>
        <pt x="251" y="0" on="1"/>
        <pt x="196" y="0" on="1"/>
        <pt x="28" y="531" on="1"/>
        <pt x="195" y="531" on="1"/>
        <pt x="298" y="101" on="1"/>
        <pt x="410" y="531" on="1"/>
        <pt x="572" y="531" on="1"/>
      </contour>
    </TTGlyph>
    <TTGlyph name="z" xMin="72" yMin="0" xMax="524" yMax="531">
      <contour>
        <pt x="524" y="120" on="1"/>
        <pt x="509" y="0" on="1"/>
        <pt x="72" y="0" on="1"/>
        <pt x="72" y="112" on="1"/>
        <pt x="336" y="412" on="1"/>
        <pt x="94" y="412" on="1"/>
        <pt x="94" y="531" on="1"/>
        <pt x="519" y="531" on="1"/>
        <pt x="519" y="420" on="1"/>
        <pt x="259" y="120" on="1"/>
      </contour>
    </TTGlyph>
    <TTGlyph name="zero" xMin="50" yMin="-17" xMax="550" yMax="711">
      <contour>
        <pt x="423" y="711" on="0"/>
        <pt x="550" y="521" on="0"/>
        <pt x="550" y="348" on="1"/>
        <pt x="550" y="174" on="0"/>
        <pt x="423" y="-17" on="0"/>
        <pt x="300" y="-17" on="1"/>
        <pt x="177" y="-17" on="0"/>
        <pt x="50" y="174" on="0"/>
        <pt x="50" y="348" on="1"/>
        <pt x="50" y="521" on="0"/>
        <pt x="177" y="711" on="0"/>
        <pt x="300" y="711" on="1"/>
      </contour>
      <contour>
        <pt x="250" y="596" on="0"/>
        <pt x="203" y="481" on="0"/>
        <pt x="203" y="348" on="1"/>
        <pt x="203" y="211" on="0"/>
        <pt x="250" y="97" on="0"/>
        <pt x="300" y="97" on="1"/>
        <pt x="351" y="97" on="0"/>
        <pt x="396" y="211" on="0"/>
        <pt x="396" y="348" on="1"/>
        <pt x="396" y="483" on="0"/>
        <pt x="349" y="596" on="0"/>
        <pt x="300" y="596" on="1"/>
      </contour>
      <contour>
        <pt x="327" y="410" on="0"/>
        <pt x="365" y="372" on="0"/>
        <pt x="365" y="345" on="1"/>
        <pt x="365" y="317" on="0"/>
        <pt x="327" y="279" on="0"/>
        <pt x="299" y="279" on="1"/>
        <pt x="271" y="279" on="0"/>
        <pt x="234" y="317" on="0"/>
        <pt x="234" y="345" on="1"/>
        <pt x="234" y="372" on="0"/>
        <pt x="271" y="410" on="0"/>
        <pt x="299" y="410" on="1"/>
      </contour>
    </TTGlyph>
</ttFont>
